<svg id="_888sport" data-name="888sport" xmlns="http://www.w3.org/2000/svg" viewBox="0 0 1000 260"><defs><style>.cls-1{fill:#ea570d;}.cls-2{fill:#fff;}</style></defs><rect id="sfondo" class="cls-1" width="1000" height="260"/><path class="cls-2" d="M115.44,188.08Q103.89,183,98.21,174.26a35.15,35.15,0,0,1-5.69-19.6,30.91,30.91,0,0,1,4.64-16.72,32.87,32.87,0,0,1,12.33-11.63,27.43,27.43,0,0,1-9.36-10.15,29.51,29.51,0,0,1-3.24-14,32.21,32.21,0,0,1,5.17-17.94q5.16-8,15.66-12.51t26.07-4.55q22.94,0,34.74,9.62T190.34,102q0,15.93-12.25,24.33a29.93,29.93,0,0,1,12.52,11.37,32.05,32.05,0,0,1,4.63,17.15,34.35,34.35,0,0,1-5.77,19.51q-5.78,8.67-17.41,13.74t-28.27,5.08Q127,193.16,115.44,188.08ZM158,166.38a14.11,14.11,0,0,0,5.6-11.72A13.89,13.89,0,0,0,158,143q-5.61-4.29-14.18-4.29T129.53,143a13.82,13.82,0,0,0-5.69,11.64,14,14,0,0,0,5.69,11.72q5.68,4.38,14.26,4.38T158,166.38Zm-1.58-52.85a12.09,12.09,0,0,0,4.9-10,12.26,12.26,0,0,0-4.9-10.15q-4.89-3.85-12.6-3.85t-12.6,3.85a13,13,0,0,0,0,20.3q4.91,3.84,12.6,3.85Q151.5,117.38,156.39,113.53Z"/><path class="cls-2" d="M233.92,188.08q-11.55-5.07-17.24-13.82a35.23,35.23,0,0,1-5.69-19.6,31,31,0,0,1,4.64-16.72A32.82,32.82,0,0,1,228,126.31a27.38,27.38,0,0,1-9.37-10.15,29.5,29.5,0,0,1-3.23-14,32.28,32.28,0,0,1,5.16-17.94q5.16-8,15.66-12.51t26.08-4.55q22.92,0,34.73,9.62T308.82,102q0,15.93-12.25,24.33a29.85,29.85,0,0,1,12.51,11.37,32.06,32.06,0,0,1,4.64,17.15,34.36,34.36,0,0,1-5.78,19.51q-5.78,8.67-17.41,13.74t-28.26,5.08Q245.47,193.16,233.92,188.08Zm42.52-21.7a14.11,14.11,0,0,0,5.6-11.72,13.89,13.89,0,0,0-5.6-11.64q-5.6-4.29-14.17-4.29T248,143a13.81,13.81,0,0,0-5.68,11.64A14,14,0,0,0,248,166.38q5.69,4.38,14.27,4.38T276.44,166.38Zm-1.57-52.85a12.11,12.11,0,0,0,4.9-10,12.29,12.29,0,0,0-4.9-10.15q-4.9-3.85-12.6-3.85t-12.6,3.85a13,13,0,0,0,0,20.3q4.89,3.84,12.6,3.85Q270,117.38,274.87,113.53Z"/><path class="cls-2" d="M352.39,188.08q-11.55-5.07-17.24-13.82a35.23,35.23,0,0,1-5.69-19.6,31,31,0,0,1,4.64-16.72,32.82,32.82,0,0,1,12.34-11.63,27.27,27.27,0,0,1-9.36-10.15,29.51,29.51,0,0,1-3.24-14A32.28,32.28,0,0,1,339,84.22q5.16-8,15.66-12.51t26.08-4.55q22.92,0,34.74,9.62T427.29,102q0,15.93-12.25,24.33a29.85,29.85,0,0,1,12.51,11.37,32.06,32.06,0,0,1,4.64,17.15,34.36,34.36,0,0,1-5.78,19.51Q420.64,183,409,188.08t-28.26,5.08Q363.94,193.16,352.39,188.08Zm42.52-21.7a14.08,14.08,0,0,0,5.6-11.72,13.87,13.87,0,0,0-5.6-11.64q-5.6-4.29-14.17-4.29T366.48,143a13.79,13.79,0,0,0-5.69,11.64,14,14,0,0,0,5.69,11.72q5.68,4.38,14.26,4.38T394.91,166.38Zm-1.57-52.85a12.11,12.11,0,0,0,4.9-10,12.29,12.29,0,0,0-4.9-10.15q-4.9-3.85-12.6-3.85t-12.6,3.85a13,13,0,0,0,0,20.3q4.89,3.84,12.6,3.85Q388.44,117.38,393.34,113.53Z"/><path class="cls-2" d="M464.12,189.13q-9.54-4-14.08-9.62t-4.55-10a3.67,3.67,0,0,1,1.31-2.89,4.34,4.34,0,0,1,2.89-1.13h19.95a2.67,2.67,0,0,1,1.92.87q2.1,1.41,3.15,2.28a40.94,40.94,0,0,0,6.74,4.11,17.17,17.17,0,0,0,7.09,1.31,15.54,15.54,0,0,0,8.31-2,6.34,6.34,0,0,0,3.24-5.69,6.57,6.57,0,0,0-1.67-4.72c-1.11-1.17-3.23-2.31-6.38-3.41a113.51,113.51,0,0,0-14.35-3.59q-14.54-3-22.32-9.72t-7.78-18.11a23.33,23.33,0,0,1,4.55-13.65q4.55-6.47,13.56-10.5t21.44-4a56.29,56.29,0,0,1,21.7,3.85q9.27,3.84,14.08,9.36t4.82,10.06a4,4,0,0,1-1.14,2.8,3.57,3.57,0,0,1-2.71,1.23h-18.2a4.4,4.4,0,0,1-2.63-.88,25.85,25.85,0,0,1-4-2.62,30.57,30.57,0,0,0-5.6-3.5,15.23,15.23,0,0,0-6.48-1.23,11.56,11.56,0,0,0-7.26,2.1,7,7,0,0,0-1.23,9.8q1.48,1.76,6.3,3.41A104.47,104.47,0,0,0,499,136.46q17,3,24.76,10.5a23.8,23.8,0,0,1,7.79,17.67q0,13-11.55,20.74t-32.2,7.79Q473.67,193.16,464.12,189.13Z"/><path class="cls-2" d="M548.47,223.43a4.14,4.14,0,0,1-1.31-3.15V104.78a4.14,4.14,0,0,1,1.31-3.15,4.39,4.39,0,0,1,3.07-1.22h19.77a4.18,4.18,0,0,1,4.37,4.37v6.3q9.47-12.42,27.13-12.42,17.15,0,26.77,10.67t10.5,30.1q.18,2.28.18,6.48t-.18,6.47q-.69,18.9-10.5,29.84t-26.77,10.94q-17.14,0-25.55-11.73v38.85a4.2,4.2,0,0,1-4.38,4.38H551.54A4.36,4.36,0,0,1,548.47,223.43Zm56.7-58.62q3.58-4.91,4.12-13.48c.23-2.33.34-4.14.34-5.42s-.11-3.09-.34-5.43c-.36-5.71-1.73-10.21-4.12-13.47s-6.33-4.9-11.81-4.9-9.31,1.66-11.81,5-3.94,7.62-4.29,12.87l-.18,6.47.18,6.65a19.2,19.2,0,0,0,4.37,11.9c2.69,3.15,6.59,4.73,11.73,4.73Q601.58,169.71,605.17,164.81Z"/><path class="cls-2" d="M667.21,182.83q-11.73-10.32-12.78-29.05c-.11-1.51-.17-4.14-.17-7.87s.06-6.36.17-7.88q1.05-18.54,13.13-29t33.07-10.41q21.18,0,33.25,10.41T747,138c.11,1.52.17,4.14.17,7.88s-.06,6.36-.17,7.87q-1.05,18.74-12.78,29.05t-33.6,10.33Q678.94,193.16,667.21,182.83ZM712,167.17q3.68-4.63,4.2-14.26.16-1.75.17-7t-.17-7q-.53-9.45-4.29-14.18T700.63,120q-14.52,0-15.4,18.9l-.17,7,.17,7q.36,9.63,4.12,14.26c2.5,3.09,6.27,4.64,11.28,4.64S709.56,170.26,712,167.17Z"/><path class="cls-2" d="M765.73,190.18a4.27,4.27,0,0,1-1.22-3.15V104.78a4.18,4.18,0,0,1,4.37-4.37H789a4.4,4.4,0,0,1,3.24,1.31,4.21,4.21,0,0,1,1.31,3.06v7q9.62-11.37,25.9-11.37h7.7a4.18,4.18,0,0,1,4.37,4.37v18a4.39,4.39,0,0,1-1.22,3.06,4.14,4.14,0,0,1-3.15,1.31h-17q-7.17,0-11.11,3.94t-3.94,11.11V187a4.08,4.08,0,0,1-1.31,3.15,4.54,4.54,0,0,1-3.24,1.23h-21.7A4.27,4.27,0,0,1,765.73,190.18Z"/><path class="cls-2" d="M854.28,156.93v-33.6H840.63a4.57,4.57,0,0,1-3.23-1.22,4.11,4.11,0,0,1-1.32-3.15V104.78a4.11,4.11,0,0,1,1.32-3.15,4.57,4.57,0,0,1,3.23-1.22h13.65V71.53a4.11,4.11,0,0,1,1.32-3.15,4.35,4.35,0,0,1,3.06-1.22H879a4.18,4.18,0,0,1,4.37,4.37v28.88h21.88a4.61,4.61,0,0,1,3.24,1.22,4.14,4.14,0,0,1,1.31,3.15V119a4.14,4.14,0,0,1-1.31,3.15,4.61,4.61,0,0,1-3.24,1.22H883.33v31.15q0,13,10,13h13.47a4.21,4.21,0,0,1,4.38,4.38V187a4.32,4.32,0,0,1-1.23,3.06,4.08,4.08,0,0,1-3.15,1.32H890.51Q854.29,191.41,854.28,156.93Z"/></svg>