<svg id="bet365" xmlns="http://www.w3.org/2000/svg" viewBox="0 0 1000 260"><defs><style>.cls-1{fill:#0a6c4b;}.cls-2{fill:#fff;}.cls-3{fill:#fdce00;}</style></defs><rect id="sfondo" class="cls-1" width="1000" height="260"/><g id="bet365-2" data-name="bet365"><path class="cls-2" d="M219.83,181.43V187a4.32,4.32,0,0,1-1.23,3.06,4.08,4.08,0,0,1-3.15,1.32H195.68A4.51,4.51,0,0,1,191.3,187V71.53a4.11,4.11,0,0,1,1.32-3.15,4.35,4.35,0,0,1,3.06-1.22H217a4.18,4.18,0,0,1,4.37,4.37V109Q231.21,98.66,247,98.66q17,0,26.78,11t10.5,29.93q.16,2.26.17,6.3c0,2.56-.06,4.61-.17,6.12q-.89,19.6-10.5,30.36T247,193.16Q229.46,193.16,219.83,181.43Zm29.49-16.62q3.59-4.91,4.11-13.48c.23-2.33.35-4.14.35-5.42s-.12-3.09-.35-5.43c-.35-5.71-1.72-10.21-4.11-13.47s-6.33-4.9-11.82-4.9q-7.69,0-11.72,4.72a19.23,19.23,0,0,0-4.38,11.9l-.17,6.48.17,6.65q.53,7.88,4.29,12.86t11.81,5C243,169.71,246.92,168.08,249.32,164.81Z"/><path class="cls-2" d="M310.65,181.78q-12.07-11.37-12.6-33.07v-6.13q.7-20.64,12.87-32.29t32.63-11.63q14.88,0,25.12,6a38.67,38.67,0,0,1,15.39,16.54,54.08,54.08,0,0,1,5.17,24.15v4.2a4.32,4.32,0,0,1-1.23,3.06,4.11,4.11,0,0,1-3.15,1.32h-56v1.22q.34,8.23,4,13.3t10.67,5.08a12.9,12.9,0,0,0,7.18-1.84,24.53,24.53,0,0,0,5.07-4.46,8.75,8.75,0,0,1,2.54-2.37,7.94,7.94,0,0,1,3.06-.43h21.7a4.07,4.07,0,0,1,2.71,1A3.16,3.16,0,0,1,387,168q0,4.54-5.16,10.5t-15,10.32q-9.81,4.38-23.1,4.38Q322.73,193.16,310.65,181.78Zm47.78-45.15v-.35c0-5.71-1.32-10.24-3.94-13.56s-6.27-5-10.94-5a13,13,0,0,0-10.76,5c-2.62,3.32-3.94,7.85-3.94,13.56v.35Z"/><path class="cls-2" d="M415.65,156.93v-33.6H402a4.61,4.61,0,0,1-3.24-1.22,4.14,4.14,0,0,1-1.31-3.15V104.78a4.14,4.14,0,0,1,1.31-3.15,4.61,4.61,0,0,1,3.24-1.22h13.65V71.53A4.14,4.14,0,0,1,417,68.38,4.39,4.39,0,0,1,420,67.16h20.3a4.18,4.18,0,0,1,4.37,4.37v28.88h21.88a4.57,4.57,0,0,1,3.23,1.22,4.11,4.11,0,0,1,1.32,3.15V119a4.11,4.11,0,0,1-1.32,3.15,4.57,4.57,0,0,1-3.23,1.22H444.7v31.15q0,13,10,13h13.47a4.21,4.21,0,0,1,4.38,4.38V187a4.32,4.32,0,0,1-1.23,3.06,4.11,4.11,0,0,1-3.15,1.32H451.88Q415.66,191.41,415.65,156.93Z"/><path class="cls-3" d="M505.16,187.91q-11.46-5.25-17-13t-5.86-15.66a3.42,3.42,0,0,1,1.13-2.63,3.88,3.88,0,0,1,2.72-1.05H509.1a6.39,6.39,0,0,1,3.15.7,6.53,6.53,0,0,1,2.28,2.63Q518,168,533.6,168q8.92,0,13.91-4.12t5-11.28q0-14-18.2-14H514.88a4.48,4.48,0,0,1-4.38-4.38v-9.8a7,7,0,0,1,2.8-5.95L542,94.11H493.35A4.5,4.5,0,0,1,489,89.73V73.28a4.11,4.11,0,0,1,1.31-3.15,4.35,4.35,0,0,1,3.06-1.22h80.5a4.61,4.61,0,0,1,3.24,1.22,4.14,4.14,0,0,1,1.31,3.15V88.16a7.42,7.42,0,0,1-2.8,5.77L549,118.61l1.23.35q16.1,2.1,25.46,10.76t9.36,24.76A32.93,32.93,0,0,1,578.4,175q-6.64,8.74-18.37,13.47a70.21,70.21,0,0,1-26.43,4.73Q516.62,193.16,505.16,187.91Z"/><path class="cls-3" d="M622.76,187.64a43.25,43.25,0,0,1-18.37-15.48,40.43,40.43,0,0,1-6.56-22.75q0-15.58,14.7-35.53l30.8-41.47A17.34,17.34,0,0,1,646,69.87a6,6,0,0,1,3.59-1H672.9A3.46,3.46,0,0,1,675.53,70a3.88,3.88,0,0,1,1.05,2.72,4.07,4.07,0,0,1-.7,2.27l-23.63,32.2a22.12,22.12,0,0,1,5.25-.52,49,49,0,0,1,20.74,5.86,44.33,44.33,0,0,1,16.36,14.79,37.6,37.6,0,0,1,6.3,21.35,41.64,41.64,0,0,1-6.3,22.4,44.22,44.22,0,0,1-17.94,16.1Q665,193.15,650,193.16,634.58,193.16,622.76,187.64ZM663.28,163q5.6-5,5.6-13.74t-5.52-13.65a19.93,19.93,0,0,0-13.73-4.9,20.27,20.27,0,0,0-13.83,4.9q-5.59,4.9-5.6,13.65T635.8,163a20.05,20.05,0,0,0,13.83,5A19.84,19.84,0,0,0,663.28,163Z"/><path class="cls-3" d="M735,188.34q-11.19-5-17.06-13.38a33.29,33.29,0,0,1-6.21-18.2,3.59,3.59,0,0,1,3.67-3.68h23.45a5.66,5.66,0,0,1,5.6,3.33q4.72,11.72,17.68,11.72a18.77,18.77,0,0,0,13-4.81q5.32-4.81,5.33-13.39a16.61,16.61,0,0,0-5.16-12.6,18.45,18.45,0,0,0-13.21-4.9,19,19,0,0,0-7.26,1.14,26.23,26.23,0,0,0-5.52,3.24c-2,1.52-3.56,2.27-4.72,2.27H721.72a3.89,3.89,0,0,1-3.85-3.85l6.3-61.07A5.28,5.28,0,0,1,726,70.31a5.94,5.94,0,0,1,3.94-1.4h70.17a4.58,4.58,0,0,1,3.24,1.22,4.11,4.11,0,0,1,1.31,3.15V89.73a4.08,4.08,0,0,1-1.31,3.15,4.54,4.54,0,0,1-3.24,1.23H749.37l-2.27,22.57a32.91,32.91,0,0,1,9.62-4.46,51.48,51.48,0,0,1,13.65-1.49,45.27,45.27,0,0,1,20.83,5,39.67,39.67,0,0,1,15.66,14.09,37.6,37.6,0,0,1,5.86,20.82A39.68,39.68,0,0,1,789,187.91q-11.46,5.42-27,5.42Q746.22,193.33,735,188.34Z"/></g></svg>