<svg xmlns="http://www.w3.org/2000/svg" xmlns:xlink="http://www.w3.org/1999/xlink" width="1000" zoomAndPan="magnify" viewBox="0 0 750 195.000001" height="260" preserveAspectRatio="xMidYMid meet" version="1.0"><defs><g/><clipPath id="677280bdd8"><path d="M 1.914062 0 L 748.085938 0 L 748.085938 194.003906 L 1.914062 194.003906 Z M 1.914062 0 " clip-rule="nonzero"/></clipPath></defs><g clip-path="url(#677280bdd8)"><path fill="#ffffff" d="M 1.914062 0 L 748.085938 0 L 748.085938 194.003906 L 1.914062 194.003906 Z M 1.914062 0 " fill-opacity="1" fill-rule="nonzero"/><path fill="#012742" d="M 1.914062 0 L 748.085938 0 L 748.085938 194.003906 L 1.914062 194.003906 Z M 1.914062 0 " fill-opacity="1" fill-rule="nonzero"/></g><g fill="#ffffff" fill-opacity="1"><g transform="translate(144.245847, 139.161357)"><g><path d="M 18.28125 -78.125 L 44.296875 -78.125 C 52.023438 -78.125 57.882812 -76.65625 61.875 -73.71875 C 65.863281 -70.78125 67.859375 -66.566406 67.859375 -61.078125 C 67.859375 -50.816406 62.570312 -44.101562 52 -40.9375 L 52 -40.5 C 55.132812 -39.46875 57.625 -37.660156 59.46875 -35.078125 C 61.320312 -32.492188 62.25 -29.332031 62.25 -25.59375 C 62.25 -17.4375 59.53125 -11.128906 54.09375 -6.671875 C 48.664062 -2.222656 40.96875 0 31 0 L 1.765625 0 Z M 32.8125 -48.140625 L 36.65625 -48.140625 C 39.789062 -48.140625 42.160156 -48.816406 43.765625 -50.171875 C 45.367188 -51.523438 46.171875 -53.703125 46.171875 -56.703125 C 46.171875 -60.328125 43.90625 -62.140625 39.375 -62.140625 L 36.015625 -62.140625 Z M 29.65625 -32.703125 L 26.125 -16.296875 L 30.515625 -16.296875 C 33.578125 -16.296875 36.128906 -17.160156 38.171875 -18.890625 C 40.222656 -20.617188 41.25 -22.78125 41.25 -25.375 C 41.25 -27.832031 40.660156 -29.664062 39.484375 -30.875 C 38.304688 -32.09375 36.242188 -32.703125 33.296875 -32.703125 Z M 29.65625 -32.703125 "/></g></g></g><g fill="#ffffff" fill-opacity="1"><g transform="translate(213.602017, 139.161357)"><g><path d="M 48.140625 0 L 1.765625 0 L 18.28125 -78.125 L 64.65625 -78.125 L 61.1875 -61.1875 L 35.703125 -61.1875 L 33.1875 -48.890625 L 56.90625 -48.890625 L 53.0625 -31.953125 L 29.34375 -31.953125 L 26.296875 -17.203125 L 51.78125 -17.203125 Z M 48.140625 0 "/></g></g></g><g fill="#ffffff" fill-opacity="1"><g transform="translate(275.10352, 139.161357)"><g><path d="M 33.5 0 L 12.609375 0 L 25.28125 -60.859375 L 8.34375 -60.859375 L 12.015625 -78.125 L 66.953125 -78.125 L 63.15625 -60.859375 L 46.171875 -60.859375 Z M 33.5 0 "/></g></g></g><g fill="#38b6ff" fill-opacity="1"><g transform="translate(335.487772, 139.161357)"><g><path d="M 22.65625 0 L 1.765625 0 L 18.28125 -78.125 L 64.34375 -78.125 L 60.75 -61.1875 L 35.59375 -61.1875 L 32.484375 -46.28125 L 55.78125 -46.28125 L 52.09375 -29.234375 L 28.6875 -29.234375 Z M 22.65625 0 "/></g></g></g><g fill="#38b6ff" fill-opacity="1"><g transform="translate(397.737339, 139.161357)"><g><path d="M 1.765625 0 L 18.28125 -78.125 L 39.171875 -78.125 L 26.296875 -17.046875 L 51.78125 -17.046875 L 48.140625 0 Z M 1.765625 0 "/></g></g></g><g fill="#38b6ff" fill-opacity="1"><g transform="translate(455.391659, 139.161357)"><g><path d="M 45.84375 -14.640625 L 21.90625 -14.640625 L 15.234375 0 L -6.46875 0 L 33.296875 -78.125 L 60.171875 -78.125 L 66.734375 0 L 46.375 0 Z M 29.546875 -31.3125 L 45.203125 -31.3125 L 44.296875 -53.96875 L 44.1875 -58.5625 C 44.1875 -61.238281 44.257812 -63.570312 44.40625 -65.5625 C 43.550781 -62.5 42.460938 -59.546875 41.140625 -56.703125 Z M 29.546875 -31.3125 "/></g></g></g><g fill="#38b6ff" fill-opacity="1"><g transform="translate(529.343076, 139.161357)"><g><path d="M 39.0625 -45.734375 L 71.65625 -45.734375 L 62.734375 -3.265625 C 53.828125 -0.378906 44.546875 1.0625 34.890625 1.0625 C 25.597656 1.0625 18.382812 -1.640625 13.25 -7.046875 C 8.125 -12.460938 5.5625 -20.140625 5.5625 -30.078125 C 5.5625 -39.597656 7.519531 -48.1875 11.4375 -55.84375 C 15.351562 -63.5 20.722656 -69.332031 27.546875 -73.34375 C 34.367188 -77.351562 42.304688 -79.359375 51.359375 -79.359375 C 60.828125 -79.359375 68.804688 -77.453125 75.296875 -73.640625 L 67.4375 -57.125 C 61.988281 -60.332031 56.535156 -61.9375 51.078125 -61.9375 C 46.378906 -61.9375 42.222656 -60.644531 38.609375 -58.0625 C 34.992188 -55.476562 32.109375 -51.65625 29.953125 -46.59375 C 27.796875 -41.539062 26.71875 -36.144531 26.71875 -30.40625 C 26.71875 -21 30.441406 -16.296875 37.890625 -16.296875 C 40.128906 -16.296875 42.5 -16.546875 45 -17.046875 L 47.71875 -29.4375 L 35.484375 -29.4375 Z M 39.0625 -45.734375 "/></g></g></g></svg>