<svg xmlns="http://www.w3.org/2000/svg" xmlns:xlink="http://www.w3.org/1999/xlink" width="1000" zoomAndPan="magnify" viewBox="0 0 750 195.000001" height="260" preserveAspectRatio="xMidYMid meet" version="1.0"><defs><g/><clipPath id="6d35f0e509"><path d="M 1.914062 0 L 748.085938 0 L 748.085938 194.003906 L 1.914062 194.003906 Z M 1.914062 0 " clip-rule="nonzero"/></clipPath></defs><g clip-path="url(#6d35f0e509)"><path fill="#ffffff" d="M 1.914062 0 L 748.085938 0 L 748.085938 194.003906 L 1.914062 194.003906 Z M 1.914062 0 " fill-opacity="1" fill-rule="nonzero"/><path fill="#feb809" d="M 1.914062 0 L 748.085938 0 L 748.085938 194.003906 L 1.914062 194.003906 Z M 1.914062 0 " fill-opacity="1" fill-rule="nonzero"/></g><g fill="#0b1321" fill-opacity="1"><g transform="translate(162.981797, 143.265311)"><g><path d="M 48.21875 -67.21875 C 55.40625 -67.21875 61.101562 -64.203125 65.3125 -58.171875 C 69.53125 -52.148438 71.640625 -43.816406 71.640625 -33.171875 C 71.640625 -22.441406 69.507812 -14.035156 65.25 -7.953125 C 61 -1.867188 55.085938 1.171875 47.515625 1.171875 C 45.066406 1.171875 42.890625 0.90625 40.984375 0.375 C 39.078125 -0.144531 37.375 -0.867188 35.875 -1.796875 C 34.382812 -2.734375 32.644531 -4.289062 30.65625 -6.46875 L 29.265625 -6.46875 L 25.65625 0 L 7.875 0 L 7.875 -90.703125 L 30.65625 -90.703125 L 30.65625 -70.1875 C 30.65625 -67.738281 30.382812 -63.519531 29.84375 -57.53125 L 30.65625 -57.53125 C 32.875 -60.957031 35.429688 -63.425781 38.328125 -64.9375 C 41.222656 -66.457031 44.519531 -67.21875 48.21875 -67.21875 Z M 39.875 -49.3125 C 36.6875 -49.3125 34.351562 -48.203125 32.875 -45.984375 C 31.394531 -43.773438 30.65625 -40.300781 30.65625 -35.5625 L 30.65625 -32.359375 C 30.65625 -26.953125 31.394531 -23.070312 32.875 -20.71875 C 34.351562 -18.375 36.765625 -17.203125 40.109375 -17.203125 C 42.785156 -17.203125 44.84375 -18.570312 46.28125 -21.3125 C 47.71875 -24.050781 48.4375 -28.082031 48.4375 -33.40625 C 48.4375 -44.007812 45.582031 -49.3125 39.875 -49.3125 Z M 39.875 -49.3125 "/></g></g><g transform="translate(239.756049, 143.265311)"><g><path d="M 39.765625 1.171875 C 28.765625 1.171875 20.222656 -1.75 14.140625 -7.59375 C 8.054688 -13.445312 5.015625 -21.78125 5.015625 -32.59375 C 5.015625 -43.738281 7.832031 -52.296875 13.46875 -58.265625 C 19.101562 -64.234375 27.144531 -67.21875 37.59375 -67.21875 C 47.550781 -67.21875 55.238281 -64.625 60.65625 -59.4375 C 66.082031 -54.25 68.796875 -46.773438 68.796875 -37.015625 L 68.796875 -26.875 L 28.046875 -26.875 C 28.203125 -23.1875 29.550781 -20.289062 32.09375 -18.1875 C 34.632812 -16.09375 38.101562 -15.046875 42.5 -15.046875 C 46.5 -15.046875 50.179688 -15.421875 53.546875 -16.171875 C 56.910156 -16.929688 60.550781 -18.222656 64.46875 -20.046875 L 64.46875 -3.671875 C 60.894531 -1.847656 57.203125 -0.585938 53.390625 0.109375 C 49.585938 0.816406 45.046875 1.171875 39.765625 1.171875 Z M 38.421875 -51.703125 C 35.734375 -51.703125 33.484375 -50.859375 31.671875 -49.171875 C 29.867188 -47.484375 28.8125 -44.832031 28.5 -41.21875 L 48.09375 -41.21875 C 48.019531 -44.40625 47.117188 -46.945312 45.390625 -48.84375 C 43.660156 -50.75 41.335938 -51.703125 38.421875 -51.703125 Z M 38.421875 -51.703125 "/></g></g><g transform="translate(313.557266, 143.265311)"><g><path d="M 40.21875 -16.84375 C 43.289062 -16.84375 46.96875 -17.601562 51.25 -19.125 L 51.25 -2.5 C 48.175781 -1.1875 45.25 -0.25 42.46875 0.3125 C 39.6875 0.882812 36.429688 1.171875 32.703125 1.171875 C 25.046875 1.171875 19.523438 -0.703125 16.140625 -4.453125 C 12.765625 -8.203125 11.078125 -13.96875 11.078125 -21.75 L 11.078125 -48.96875 L 3.09375 -48.96875 L 3.09375 -58.234375 L 13.234375 -65.40625 L 19.125 -79.28125 L 34.046875 -79.28125 L 34.046875 -66.046875 L 50.25 -66.046875 L 50.25 -48.96875 L 34.046875 -48.96875 L 34.046875 -23.265625 C 34.046875 -18.984375 36.101562 -16.84375 40.21875 -16.84375 Z M 40.21875 -16.84375 "/></g></g><g transform="translate(368.470968, 143.265311)"><g><path d="M 48.21875 -48.96875 L 34.15625 -48.96875 L 34.15625 0 L 11.375 0 L 11.375 -48.96875 L 2.625 -48.96875 L 2.625 -60.15625 L 11.828125 -65.765625 L 11.828125 -66.859375 C 11.828125 -75.566406 13.601562 -81.820312 17.15625 -85.625 C 20.71875 -89.4375 26.425781 -91.34375 34.28125 -91.34375 C 37.3125 -91.34375 40.175781 -91.109375 42.875 -90.640625 C 45.570312 -90.179688 48.710938 -89.367188 52.296875 -88.203125 L 47.390625 -73.453125 C 44.597656 -74.234375 41.859375 -74.625 39.171875 -74.625 C 37.421875 -74.625 36.144531 -74.085938 35.34375 -73.015625 C 34.550781 -71.941406 34.15625 -70.203125 34.15625 -67.796875 L 34.15625 -66.046875 L 48.21875 -66.046875 Z M 48.21875 -48.96875 "/></g></g><g transform="translate(417.788369, 143.265311)"><g><path d="M 50.953125 0 L 46.578125 -8.75 L 46.109375 -8.75 C 43.035156 -4.9375 39.90625 -2.328125 36.71875 -0.921875 C 33.539062 0.472656 29.425781 1.171875 24.375 1.171875 C 18.15625 1.171875 13.253906 -0.691406 9.671875 -4.421875 C 6.097656 -8.160156 4.3125 -13.410156 4.3125 -20.171875 C 4.3125 -27.203125 6.757812 -32.4375 11.65625 -35.875 C 16.550781 -39.320312 23.644531 -41.257812 32.9375 -41.6875 L 43.953125 -42.03125 L 43.953125 -42.96875 C 43.953125 -48.40625 41.269531 -51.125 35.90625 -51.125 C 31.09375 -51.125 24.972656 -49.492188 17.546875 -46.234375 L 10.953125 -61.265625 C 18.648438 -65.234375 28.367188 -67.21875 40.109375 -67.21875 C 48.578125 -67.21875 55.132812 -65.117188 59.78125 -60.921875 C 64.425781 -56.722656 66.75 -50.851562 66.75 -43.3125 L 66.75 0 Z M 34.046875 -14.921875 C 36.804688 -14.921875 39.164062 -15.796875 41.125 -17.546875 C 43.09375 -19.296875 44.078125 -21.570312 44.078125 -24.375 L 44.078125 -29.5 L 38.828125 -29.265625 C 31.328125 -28.992188 27.578125 -26.234375 27.578125 -20.984375 C 27.578125 -16.941406 29.734375 -14.921875 34.046875 -14.921875 Z M 34.046875 -14.921875 "/></g></g><g transform="translate(492.172535, 143.265311)"><g><path d="M 30.78125 0 L 7.984375 0 L 7.984375 -66.046875 L 30.78125 -66.046875 Z M 7.40625 -82.484375 C 7.40625 -85.910156 8.351562 -88.457031 10.25 -90.125 C 12.15625 -91.789062 15.226562 -92.625 19.46875 -92.625 C 23.707031 -92.625 26.796875 -91.769531 28.734375 -90.0625 C 30.679688 -88.351562 31.65625 -85.828125 31.65625 -82.484375 C 31.65625 -75.804688 27.59375 -72.46875 19.46875 -72.46875 C 11.425781 -72.46875 7.40625 -75.804688 7.40625 -82.484375 Z M 7.40625 -82.484375 "/></g></g><g transform="translate(530.996871, 143.265311)"><g><path d="M 47.75 -67.21875 C 49.726562 -67.21875 51.613281 -67.0625 53.40625 -66.75 L 54.6875 -66.515625 L 52.640625 -45 C 50.773438 -45.46875 48.191406 -45.703125 44.890625 -45.703125 C 39.910156 -45.703125 36.289062 -44.566406 34.03125 -42.296875 C 31.78125 -40.023438 30.65625 -36.75 30.65625 -32.46875 L 30.65625 0 L 7.875 0 L 7.875 -66.046875 L 24.828125 -66.046875 L 28.390625 -55.5 L 29.5 -55.5 C 31.40625 -59 34.054688 -61.828125 37.453125 -63.984375 C 40.859375 -66.140625 44.289062 -67.21875 47.75 -67.21875 Z M 47.75 -67.21875 "/></g></g></g></svg>