<svg xmlns="http://www.w3.org/2000/svg" xmlns:xlink="http://www.w3.org/1999/xlink" width="1000" zoomAndPan="magnify" viewBox="0 0 750 195.000001" height="260" preserveAspectRatio="xMidYMid meet" version="1.0"><defs><g/><clipPath id="47254e8da5"><path d="M 1.914062 0 L 748.085938 0 L 748.085938 194.003906 L 1.914062 194.003906 Z M 1.914062 0 " clip-rule="nonzero"/></clipPath></defs><g clip-path="url(#47254e8da5)"><path fill="#ffffff" d="M 1.914062 0 L 748.085938 0 L 748.085938 194.003906 L 1.914062 194.003906 Z M 1.914062 0 " fill-opacity="1" fill-rule="nonzero"/><path fill="#ff6602" d="M 1.914062 0 L 748.085938 0 L 748.085938 194.003906 L 1.914062 194.003906 Z M 1.914062 0 " fill-opacity="1" fill-rule="nonzero"/></g><g fill="#ffffff" fill-opacity="1"><g transform="translate(130.569888, 143.265311)"><g><path d="M 48.21875 -67.21875 C 55.40625 -67.21875 61.101562 -64.203125 65.3125 -58.171875 C 69.53125 -52.148438 71.640625 -43.816406 71.640625 -33.171875 C 71.640625 -22.441406 69.507812 -14.035156 65.25 -7.953125 C 61 -1.867188 55.085938 1.171875 47.515625 1.171875 C 45.066406 1.171875 42.890625 0.90625 40.984375 0.375 C 39.078125 -0.144531 37.375 -0.867188 35.875 -1.796875 C 34.382812 -2.734375 32.644531 -4.289062 30.65625 -6.46875 L 29.265625 -6.46875 L 25.65625 0 L 7.875 0 L 7.875 -90.703125 L 30.65625 -90.703125 L 30.65625 -70.1875 C 30.65625 -67.738281 30.382812 -63.519531 29.84375 -57.53125 L 30.65625 -57.53125 C 32.875 -60.957031 35.429688 -63.425781 38.328125 -64.9375 C 41.222656 -66.457031 44.519531 -67.21875 48.21875 -67.21875 Z M 39.875 -49.3125 C 36.6875 -49.3125 34.351562 -48.203125 32.875 -45.984375 C 31.394531 -43.773438 30.65625 -40.300781 30.65625 -35.5625 L 30.65625 -32.359375 C 30.65625 -26.953125 31.394531 -23.070312 32.875 -20.71875 C 34.351562 -18.375 36.765625 -17.203125 40.109375 -17.203125 C 42.785156 -17.203125 44.84375 -18.570312 46.28125 -21.3125 C 47.71875 -24.050781 48.4375 -28.082031 48.4375 -33.40625 C 48.4375 -44.007812 45.582031 -49.3125 39.875 -49.3125 Z M 39.875 -49.3125 "/></g></g><g transform="translate(207.34414, 143.265311)"><g><path d="M 39.765625 1.171875 C 28.765625 1.171875 20.222656 -1.75 14.140625 -7.59375 C 8.054688 -13.445312 5.015625 -21.78125 5.015625 -32.59375 C 5.015625 -43.738281 7.832031 -52.296875 13.46875 -58.265625 C 19.101562 -64.234375 27.144531 -67.21875 37.59375 -67.21875 C 47.550781 -67.21875 55.238281 -64.625 60.65625 -59.4375 C 66.082031 -54.25 68.796875 -46.773438 68.796875 -37.015625 L 68.796875 -26.875 L 28.046875 -26.875 C 28.203125 -23.1875 29.550781 -20.289062 32.09375 -18.1875 C 34.632812 -16.09375 38.101562 -15.046875 42.5 -15.046875 C 46.5 -15.046875 50.179688 -15.421875 53.546875 -16.171875 C 56.910156 -16.929688 60.550781 -18.222656 64.46875 -20.046875 L 64.46875 -3.671875 C 60.894531 -1.847656 57.203125 -0.585938 53.390625 0.109375 C 49.585938 0.816406 45.046875 1.171875 39.765625 1.171875 Z M 38.421875 -51.703125 C 35.734375 -51.703125 33.484375 -50.859375 31.671875 -49.171875 C 29.867188 -47.484375 28.8125 -44.832031 28.5 -41.21875 L 48.09375 -41.21875 C 48.019531 -44.40625 47.117188 -46.945312 45.390625 -48.84375 C 43.660156 -50.75 41.335938 -51.703125 38.421875 -51.703125 Z M 38.421875 -51.703125 "/></g></g><g transform="translate(281.145356, 143.265311)"><g><path d="M 40.21875 -16.84375 C 43.289062 -16.84375 46.96875 -17.601562 51.25 -19.125 L 51.25 -2.5 C 48.175781 -1.1875 45.25 -0.25 42.46875 0.3125 C 39.6875 0.882812 36.429688 1.171875 32.703125 1.171875 C 25.046875 1.171875 19.523438 -0.703125 16.140625 -4.453125 C 12.765625 -8.203125 11.078125 -13.96875 11.078125 -21.75 L 11.078125 -48.96875 L 3.09375 -48.96875 L 3.09375 -58.234375 L 13.234375 -65.40625 L 19.125 -79.28125 L 34.046875 -79.28125 L 34.046875 -66.046875 L 50.25 -66.046875 L 50.25 -48.96875 L 34.046875 -48.96875 L 34.046875 -23.265625 C 34.046875 -18.984375 36.101562 -16.84375 40.21875 -16.84375 Z M 40.21875 -16.84375 "/></g></g><g transform="translate(336.059059, 143.265311)"><g><path d="M 58.875 -20.28125 C 58.875 -13.207031 56.460938 -7.863281 51.640625 -4.25 C 46.828125 -0.632812 39.910156 1.171875 30.890625 1.171875 C 25.992188 1.171875 21.738281 0.90625 18.125 0.375 C 14.507812 -0.144531 10.816406 -1.101562 7.046875 -2.5 L 7.046875 -20.75 C 10.585938 -19.195312 14.46875 -17.914062 18.6875 -16.90625 C 22.90625 -15.894531 26.664062 -15.390625 29.96875 -15.390625 C 34.90625 -15.390625 37.375 -16.515625 37.375 -18.765625 C 37.375 -19.929688 36.679688 -20.972656 35.296875 -21.890625 C 33.921875 -22.804688 29.910156 -24.582031 23.265625 -27.21875 C 17.203125 -29.707031 12.960938 -32.535156 10.546875 -35.703125 C 8.140625 -38.867188 6.9375 -42.882812 6.9375 -47.75 C 6.9375 -53.882812 9.304688 -58.660156 14.046875 -62.078125 C 18.785156 -65.503906 25.488281 -67.21875 34.15625 -67.21875 C 38.507812 -67.21875 42.597656 -66.738281 46.421875 -65.78125 C 50.253906 -64.832031 54.234375 -63.445312 58.359375 -61.625 L 52.171875 -46.921875 C 49.140625 -48.285156 45.929688 -49.441406 42.546875 -50.390625 C 39.171875 -51.347656 36.414062 -51.828125 34.28125 -51.828125 C 30.550781 -51.828125 28.6875 -50.910156 28.6875 -49.078125 C 28.6875 -47.953125 29.335938 -46.988281 30.640625 -46.1875 C 31.941406 -45.394531 35.703125 -43.773438 41.921875 -41.328125 C 46.546875 -39.421875 49.992188 -37.554688 52.265625 -35.734375 C 54.535156 -33.910156 56.203125 -31.765625 57.265625 -29.296875 C 58.335938 -26.828125 58.875 -23.820312 58.875 -20.28125 Z M 58.875 -20.28125 "/></g></g><g transform="translate(399.716981, 143.265311)"><g><path d="M 58.875 -20.28125 C 58.875 -13.207031 56.460938 -7.863281 51.640625 -4.25 C 46.828125 -0.632812 39.910156 1.171875 30.890625 1.171875 C 25.992188 1.171875 21.738281 0.90625 18.125 0.375 C 14.507812 -0.144531 10.816406 -1.101562 7.046875 -2.5 L 7.046875 -20.75 C 10.585938 -19.195312 14.46875 -17.914062 18.6875 -16.90625 C 22.90625 -15.894531 26.664062 -15.390625 29.96875 -15.390625 C 34.90625 -15.390625 37.375 -16.515625 37.375 -18.765625 C 37.375 -19.929688 36.679688 -20.972656 35.296875 -21.890625 C 33.921875 -22.804688 29.910156 -24.582031 23.265625 -27.21875 C 17.203125 -29.707031 12.960938 -32.535156 10.546875 -35.703125 C 8.140625 -38.867188 6.9375 -42.882812 6.9375 -47.75 C 6.9375 -53.882812 9.304688 -58.660156 14.046875 -62.078125 C 18.785156 -65.503906 25.488281 -67.21875 34.15625 -67.21875 C 38.507812 -67.21875 42.597656 -66.738281 46.421875 -65.78125 C 50.253906 -64.832031 54.234375 -63.445312 58.359375 -61.625 L 52.171875 -46.921875 C 49.140625 -48.285156 45.929688 -49.441406 42.546875 -50.390625 C 39.171875 -51.347656 36.414062 -51.828125 34.28125 -51.828125 C 30.550781 -51.828125 28.6875 -50.910156 28.6875 -49.078125 C 28.6875 -47.953125 29.335938 -46.988281 30.640625 -46.1875 C 31.941406 -45.394531 35.703125 -43.773438 41.921875 -41.328125 C 46.546875 -39.421875 49.992188 -37.554688 52.265625 -35.734375 C 54.535156 -33.910156 56.203125 -31.765625 57.265625 -29.296875 C 58.335938 -26.828125 58.875 -23.820312 58.875 -20.28125 Z M 58.875 -20.28125 "/></g></g><g transform="translate(463.374903, 143.265311)"><g><path d="M 70.953125 -33.171875 C 70.953125 -22.367188 68.046875 -13.941406 62.234375 -7.890625 C 56.421875 -1.847656 48.285156 1.171875 37.828125 1.171875 C 27.804688 1.171875 19.832031 -1.914062 13.90625 -8.09375 C 7.976562 -14.28125 5.015625 -22.640625 5.015625 -33.171875 C 5.015625 -43.929688 7.914062 -52.296875 13.71875 -58.265625 C 19.53125 -64.234375 27.6875 -67.21875 38.1875 -67.21875 C 44.675781 -67.21875 50.40625 -65.835938 55.375 -63.078125 C 60.351562 -60.316406 64.191406 -56.359375 66.890625 -51.203125 C 69.597656 -46.054688 70.953125 -40.046875 70.953125 -33.171875 Z M 28.15625 -33.171875 C 28.15625 -27.492188 28.910156 -23.164062 30.421875 -20.1875 C 31.941406 -17.21875 34.488281 -15.734375 38.0625 -15.734375 C 41.601562 -15.734375 44.101562 -17.21875 45.5625 -20.1875 C 47.019531 -23.164062 47.75 -27.492188 47.75 -33.171875 C 47.75 -38.804688 47.007812 -43.0625 45.53125 -45.9375 C 44.050781 -48.8125 41.523438 -50.25 37.953125 -50.25 C 34.453125 -50.25 31.941406 -48.820312 30.421875 -45.96875 C 28.910156 -43.113281 28.15625 -38.847656 28.15625 -33.171875 Z M 28.15625 -33.171875 "/></g></g><g transform="translate(539.449617, 143.265311)"><g><path d="M 49.546875 0 L 49.546875 -36.03125 C 49.546875 -40.414062 48.914062 -43.722656 47.65625 -45.953125 C 46.394531 -48.191406 44.363281 -49.3125 41.5625 -49.3125 C 37.71875 -49.3125 34.9375 -47.773438 33.21875 -44.703125 C 31.507812 -41.640625 30.65625 -36.378906 30.65625 -28.921875 L 30.65625 0 L 7.875 0 L 7.875 -66.046875 L 25.0625 -66.046875 L 27.921875 -57.890625 L 29.265625 -57.890625 C 31.203125 -60.992188 33.890625 -63.320312 37.328125 -64.875 C 40.773438 -66.4375 44.734375 -67.21875 49.203125 -67.21875 C 56.503906 -67.21875 62.1875 -65.097656 66.25 -60.859375 C 70.3125 -56.617188 72.34375 -50.65625 72.34375 -42.96875 L 72.34375 0 Z M 49.546875 0 "/></g></g></g></svg>