<svg id="BWIN" xmlns="http://www.w3.org/2000/svg" viewBox="0 0 1000 261.43"><defs><style>.cls-1{fill:#fff;}</style></defs><rect id="sfondo" width="1000" height="261.43"/><path class="cls-1" d="M331,190a22.63,22.63,0,0,1-10-8.58l-1.23,5.6a5.14,5.14,0,0,1-1.83,3.15,5.24,5.24,0,0,1-3.42,1.23H294.9a3.5,3.5,0,0,1-3-1.4,3,3,0,0,1-.7-1.93,3.49,3.49,0,0,1,.17-1.05l24.5-115.5a5,5,0,0,1,1.93-3.15,5.35,5.35,0,0,1,3.32-1.22H342.5a3.74,3.74,0,0,1,3,1.22,3.82,3.82,0,0,1,.7,2.1,3.22,3.22,0,0,1-.18,1L338.13,109a42.42,42.42,0,0,1,11.72-7.7A35.73,35.73,0,0,1,364,98.66q14.7,0,22.92,8.22t8.23,22.75a67.61,67.61,0,0,1-.88,9.8q-.87,5.25-2.8,12.95-4.9,19.6-16.19,30.19t-28.26,10.59A37.37,37.37,0,0,1,331,190Zm22.75-25.2q4.73-4.91,7.35-13.48a62,62,0,0,0,2.28-10.85,37.19,37.19,0,0,0,.52-6.12q0-6-2.71-9.1T352,122.11a18.66,18.66,0,0,0-13.12,4.81,24.52,24.52,0,0,0-7.18,11.81A92.68,92.68,0,0,0,329,151.86a29.33,29.33,0,0,0-.53,5.42q0,12.43,12.43,12.43Q349,169.71,353.7,164.81Z" transform="translate(0 1.43)"/><path class="cls-1" d="M418.63,187l-8.23-81.55a4.35,4.35,0,0,1,1.31-3.59,4.89,4.89,0,0,1,3.59-1.48h17.33c2.8,0,4.31,1.22,4.55,3.67l4.2,50.05,26.25-49.87a7.73,7.73,0,0,1,2.27-2.63,6.11,6.11,0,0,1,3.85-1.22h11.73a4.36,4.36,0,0,1,3.32,1.13,4.71,4.71,0,0,1,1.23,2.72l5.25,49.87,25.37-50a7.51,7.51,0,0,1,2.19-2.54,5.78,5.78,0,0,1,3.59-1.13H546c2,0,3,.93,3,2.8a7.14,7.14,0,0,1-.52,2.45L506.12,187q-2.08,4.38-6.47,4.38H483.73q-4.38,0-5.08-4.38l-7-47.95L445.58,187c-1.64,2.92-3.91,4.38-6.83,4.38h-15.4Q419,191.41,418.63,187Z" transform="translate(0 1.43)"/><path class="cls-1" d="M546.9,190.18a3.61,3.61,0,0,1-.7-3.15l17.5-82.25a5,5,0,0,1,1.92-3.15,5.61,5.61,0,0,1,3.5-1.22h20.65a3.51,3.51,0,0,1,2.8,1.22,3.26,3.26,0,0,1,.7,2.1,3.49,3.49,0,0,1-.17,1L575.77,187a5,5,0,0,1-1.92,3.15,5.33,5.33,0,0,1-3.33,1.23H549.87A3.69,3.69,0,0,1,546.9,190.18Zm22-104.12a4.33,4.33,0,0,1-.79-3.15l3.5-15.75A5,5,0,0,1,573.5,64a5.32,5.32,0,0,1,3.32-1.23h21a3.7,3.7,0,0,1,3,1.23,3.82,3.82,0,0,1,.7,2.1,3.22,3.22,0,0,1-.18,1L598,82.91a5.31,5.31,0,0,1-5.25,4.37h-21A3.43,3.43,0,0,1,568.86,86.06Z" transform="translate(0 1.43)"/><path class="cls-1" d="M597,190.18a3.61,3.61,0,0,1-.7-3.15l17.5-82.25a5,5,0,0,1,1.92-3.15,5.61,5.61,0,0,1,3.5-1.22H639.3a3.72,3.72,0,0,1,3,1.22,3.26,3.26,0,0,1,.7,2.1,3.49,3.49,0,0,1-.17,1l-1.4,6.65a45.43,45.43,0,0,1,13.47-9.27,40.06,40.06,0,0,1,16.8-3.5q13.83,0,21.53,7.08t7.7,20.57a62.64,62.64,0,0,1-1.4,11.9L689,187a5.15,5.15,0,0,1-1.84,3.15,5,5,0,0,1-3.24,1.23h-22a3.58,3.58,0,0,1-3-1.32,3.52,3.52,0,0,1-.7-3.06l10.15-47.77a37.47,37.47,0,0,0,.87-6.83c0-3.5-.93-6.09-2.8-7.79s-4.84-2.53-8.92-2.53a20.21,20.21,0,0,0-13.3,4.46Q638.77,131,637,139.26l-10,47.77a5,5,0,0,1-1.93,3.15,5.32,5.32,0,0,1-3.32,1.23H599.92A3.69,3.69,0,0,1,597,190.18Z" transform="translate(0 1.43)"/></svg>