<svg id="EUROBET" xmlns="http://www.w3.org/2000/svg" viewBox="0 0 1000 260"><defs><style>.cls-1{fill:#25599d;}.cls-2{fill:#fff;}</style></defs><rect id="sfondo" class="cls-1" width="1000" height="260"/><g id="EUROBET-2" data-name="EUROBET"><path class="cls-2" d="M158.08,181.41a3.61,3.61,0,0,1-1.13-2.63V81.28a3.53,3.53,0,0,1,1.13-2.7,3.71,3.71,0,0,1,2.62-1h70.05a3.6,3.6,0,0,1,3.75,3.75v14.1A3.74,3.74,0,0,1,233.45,98a3.52,3.52,0,0,1-2.7,1.12H182.9v20.25h44.55a3.53,3.53,0,0,1,2.7,1.13,3.9,3.9,0,0,1,1,2.77v13.05a3.74,3.74,0,0,1-1,2.63,3.52,3.52,0,0,1-2.7,1.12H182.9v20.85h49a3.6,3.6,0,0,1,3.75,3.75v14.1a3.74,3.74,0,0,1-1,2.63,3.52,3.52,0,0,1-2.7,1.12H160.7A3.58,3.58,0,0,1,158.08,181.41Z"/><path class="cls-2" d="M263.83,173.68q-11.92-10.35-11.93-31.2V81.28a3.53,3.53,0,0,1,1.13-2.7,3.71,3.71,0,0,1,2.62-1H275a3.93,3.93,0,0,1,2.78,1,3.52,3.52,0,0,1,1.12,2.7v61.05q0,9.75,4.58,14.63t13.27,4.87q8.55,0,13.2-5t4.65-14.55V81.28a3.53,3.53,0,0,1,1.13-2.7,3.71,3.71,0,0,1,2.62-1h19.5a3.6,3.6,0,0,1,3.75,3.75v61.2q0,20.85-11.92,31.2T296.9,184Q275.75,184,263.83,173.68Z"/><path class="cls-2" d="M362.68,181.41a3.61,3.61,0,0,1-1.13-2.63V81.28a3.53,3.53,0,0,1,1.13-2.7,3.71,3.71,0,0,1,2.62-1h40.8q19.65,0,30.68,8.93t11,25.27q0,10.5-4.95,17.85a31.61,31.61,0,0,1-13.65,11.25l20.55,36.9a3.73,3.73,0,0,1,.45,1.65,3.33,3.33,0,0,1-3.15,3.15H427.1a6.26,6.26,0,0,1-6.15-4.05l-17.1-33h-15.3v33.3a3.52,3.52,0,0,1-1.12,2.7,3.93,3.93,0,0,1-2.78,1.05H365.3A3.58,3.58,0,0,1,362.68,181.41Zm43.12-57.23q6.9,0,10.5-3.37t3.6-9.38q0-6-3.52-9.52T405.8,98.38H388.55v25.8Z"/><path class="cls-2" d="M474.35,173.68q-12.15-10.35-12.9-30.45-.15-4.35-.15-12.9,0-8.7.15-13.05.75-19.8,13.13-30.52T507.65,76q20.7,0,33.15,10.73t13.05,30.52q.3,8.7.3,13.05,0,4.2-.3,12.9-.75,20.1-12.9,30.45T507.65,184Q486.5,184,474.35,173.68Zm46.43-16.2q4.86-4.95,5.17-15.15.3-8.7.3-12.3,0-3.9-.3-12.3-.3-10.2-5.25-15.15t-13.05-5q-8.1,0-13,5t-5.33,15.15q-.15,4.2-.15,12.3t.15,12.3q.45,10.2,5.25,15.15t13,5Q515.9,162.43,520.78,157.48Z"/><path class="cls-2" d="M572.67,181.41a3.6,3.6,0,0,1-1.12-2.63V81.28a3.52,3.52,0,0,1,1.12-2.7,3.74,3.74,0,0,1,2.63-1h45.75q18.9,0,28.12,7.73t9.23,22a20.81,20.81,0,0,1-3.82,12.68,24.52,24.52,0,0,1-8.63,7.57,25.93,25.93,0,0,1,14.55,23.25q0,15-9.9,23.4t-28.2,8.4H575.3A3.6,3.6,0,0,1,572.67,181.41Zm45.38-62.18q6,0,9.15-3.07a10.92,10.92,0,0,0,3.15-8.18,10.47,10.47,0,0,0-3.15-8q-3.15-3-9.15-3h-19.5v22.2ZM619.4,163q6.15,0,9.6-3.6a13,13,0,0,0,0-17.62q-3.45-3.52-9.6-3.53H598.55V163Z"/><path class="cls-2" d="M678.27,181.41a3.6,3.6,0,0,1-1.12-2.63V81.28a3.52,3.52,0,0,1,1.12-2.7,3.74,3.74,0,0,1,2.63-1H751a3.6,3.6,0,0,1,3.75,3.75v14.1A3.74,3.74,0,0,1,753.65,98a3.52,3.52,0,0,1-2.7,1.12H703.1v20.25h44.55a3.53,3.53,0,0,1,2.7,1.13,3.9,3.9,0,0,1,1,2.77v13.05a3.74,3.74,0,0,1-1,2.63,3.52,3.52,0,0,1-2.7,1.12H703.1v20.85h49a3.6,3.6,0,0,1,3.75,3.75v14.1a3.74,3.74,0,0,1-1,2.63,3.52,3.52,0,0,1-2.7,1.12H680.9A3.6,3.6,0,0,1,678.27,181.41Z"/><path class="cls-2" d="M797.22,181.41a3.6,3.6,0,0,1-1.12-2.63v-77.7H769.4a3.83,3.83,0,0,1-3.75-3.75v-16a3.52,3.52,0,0,1,1.12-2.7,3.74,3.74,0,0,1,2.63-1h80.7a3.6,3.6,0,0,1,3.75,3.75v16a3.6,3.6,0,0,1-3.75,3.75H823.4v77.7a3.74,3.74,0,0,1-1,2.63,3.52,3.52,0,0,1-2.7,1.12h-19.8A3.6,3.6,0,0,1,797.22,181.41Z"/></g></svg>