<svg id="GoldBet" xmlns="http://www.w3.org/2000/svg" viewBox="0 0 1000 260"><defs><style>.cls-1{fill:#223a82;}.cls-2{fill:#facd00;}.cls-3{fill:#fff;}</style></defs><rect id="sfondo" class="cls-1" width="1000" height="260"/><g id="GoldBet-2" data-name="GoldBet"><path class="cls-2" d="M172.49,180.82q-14.18-12.34-15.05-35.09-.18-5.07-.17-16.1t.17-16.1q.87-22.22,15.31-34.3t39.12-12.07q16.62,0,29,5.42t18.9,13.83q6.56,8.4,6.91,17.32a3.43,3.43,0,0,1-1.14,2.63,3.86,3.86,0,0,1-2.71,1H237.24a6.29,6.29,0,0,1-2.8-.53,4.09,4.09,0,0,1-1.75-1.92,23,23,0,0,0-7.17-8.84q-4.91-3.77-13.65-3.76-20.84,0-21.88,22-.18,4.89-.17,15.22,0,10.16.17,15.23,1,23.1,22.4,23.1,10.32,0,16.54-5.34t6.21-16.36v-3.33H218.69a4.11,4.11,0,0,1-3.15-1.31,4.53,4.53,0,0,1-1.22-3.24V125.43a4.57,4.57,0,0,1,1.22-3.24,4.14,4.14,0,0,1,3.15-1.31h44.1a4.14,4.14,0,0,1,3.15,1.31,4.58,4.58,0,0,1,1.23,3.24v19.95q0,14.88-6.83,25.64A43.64,43.64,0,0,1,241,187.47q-12.51,5.68-29.13,5.69Q186.67,193.16,172.49,180.82Z"/><path class="cls-2" d="M295,182.83q-11.73-10.32-12.78-29.05c-.11-1.51-.17-4.14-.17-7.87s.06-6.36.17-7.88q1.05-18.54,13.13-29t33.07-10.41q21.18,0,33.25,10.41t13.13,29c.11,1.52.17,4.14.17,7.88s-.06,6.36-.17,7.87q-1.05,18.74-12.78,29.05t-33.6,10.33Q306.72,193.16,295,182.83Zm44.8-15.66q3.68-4.63,4.2-14.26.17-1.75.17-7t-.17-7q-.53-9.45-4.29-14.18T328.41,120q-14.52,0-15.4,18.9l-.17,7,.17,7q.36,9.63,4.12,14.26c2.5,3.09,6.27,4.64,11.28,4.64S337.34,170.26,339.79,167.17Z"/><path class="cls-2" d="M393.6,190.09a4.2,4.2,0,0,1-1.31-3.06V71.53a4.14,4.14,0,0,1,1.31-3.15,4.39,4.39,0,0,1,3.06-1.22h20.65a4.2,4.2,0,0,1,4.38,4.37V187a4.21,4.21,0,0,1-4.38,4.38H396.66A4.2,4.2,0,0,1,393.6,190.09Z"/><path class="cls-2" d="M449.6,182.39q-9.54-10.75-10.41-30.36l-.18-6.12.18-6.3q.69-18.9,10.41-29.93t26.69-11Q492.2,98.66,502,109V71.53a4.2,4.2,0,0,1,4.38-4.37h21.35a4.18,4.18,0,0,1,4.37,4.37V187a4.35,4.35,0,0,1-1.22,3.06,4.11,4.11,0,0,1-3.15,1.32H508a4.5,4.5,0,0,1-4.37-4.38v-5.6q-9.63,11.73-27.3,11.73Q459.13,193.16,449.6,182.39Zm48-17.67q3.84-5,4.37-12.86.18-2.28.18-6.65,0-4.2-.18-6.48a19.23,19.23,0,0,0-4.37-11.9q-4-4.72-11.73-4.72-8.22,0-11.81,4.9c-2.39,3.26-3.76,7.76-4.11,13.47q-.18,1.76-.18,5.43c0,2.45.06,4.26.18,5.42q.52,8.58,4.11,13.48t11.81,4.9Q493.79,169.71,497.64,164.72Z"/><path class="cls-3" d="M556,190.09a4.16,4.16,0,0,1-1.31-3.06V73.28A4.11,4.11,0,0,1,556,70.13a4.35,4.35,0,0,1,3.06-1.22h53.38q22,0,32.81,9T656,103.56a24.19,24.19,0,0,1-4.46,14.78,28.47,28.47,0,0,1-10.06,8.84,29.33,29.33,0,0,1,12.07,10.68,29,29,0,0,1,4.9,16.45q0,17.49-11.55,27.3t-32.9,9.8h-55A4.17,4.17,0,0,1,556,190.09Zm52.94-72.53q7,0,10.67-3.59a12.72,12.72,0,0,0,3.68-9.54,12.2,12.2,0,0,0-3.68-9.27q-3.68-3.51-10.67-3.5H586.19v25.9Zm1.57,51.1q7.17,0,11.2-4.2a14.17,14.17,0,0,0,4-10.15,14.32,14.32,0,0,0-4-10.42c-2.68-2.73-6.42-4.11-11.2-4.11H586.19v28.88Z"/><path class="cls-3" d="M684.89,181.78q-12.07-11.37-12.6-33.07v-6.13q.69-20.64,12.86-32.29t32.64-11.63q14.87,0,25.11,6a38.69,38.69,0,0,1,15.4,16.54,54.08,54.08,0,0,1,5.16,24.15v4.2a4.35,4.35,0,0,1-1.22,3.06,4.11,4.11,0,0,1-3.15,1.32h-56v1.22q.35,8.23,4,13.3t10.68,5.08a12.89,12.89,0,0,0,7.17-1.84,24.33,24.33,0,0,0,5.08-4.46,8.75,8.75,0,0,1,2.53-2.37,8,8,0,0,1,3.07-.43h21.7a4.07,4.07,0,0,1,2.71,1,3.16,3.16,0,0,1,1.14,2.54q0,4.54-5.17,10.5t-15,10.32q-9.79,4.38-23.1,4.38Q697,193.16,684.89,181.78Zm47.77-45.15v-.35c0-5.71-1.31-10.24-3.94-13.56s-6.27-5-10.93-5a13,13,0,0,0-10.77,5c-2.62,3.32-3.93,7.85-3.93,13.56v.35Z"/><path class="cls-3" d="M789.89,156.93v-33.6H776.24a4.58,4.58,0,0,1-3.24-1.22,4.11,4.11,0,0,1-1.31-3.15V104.78a4.11,4.11,0,0,1,1.31-3.15,4.58,4.58,0,0,1,3.24-1.22h13.65V71.53a4.11,4.11,0,0,1,1.31-3.15,4.35,4.35,0,0,1,3.06-1.22h20.3a4.2,4.2,0,0,1,4.38,4.37v28.88h21.87a4.61,4.61,0,0,1,3.24,1.22,4.14,4.14,0,0,1,1.31,3.15V119a4.14,4.14,0,0,1-1.31,3.15,4.61,4.61,0,0,1-3.24,1.22H818.94v31.15q0,13,10,13h13.48a4.2,4.2,0,0,1,4.37,4.38V187a4.35,4.35,0,0,1-1.22,3.06,4.11,4.11,0,0,1-3.15,1.32H826.11Q789.89,191.41,789.89,156.93Z"/></g></svg>