<svg xmlns="http://www.w3.org/2000/svg" xmlns:xlink="http://www.w3.org/1999/xlink" width="1000" zoomAndPan="magnify" viewBox="0 0 750 195.000001" height="260" preserveAspectRatio="xMidYMid meet" version="1.0"><defs><g/><clipPath id="7f7968b5f1"><path d="M 1.914062 0 L 748.085938 0 L 748.085938 194.003906 L 1.914062 194.003906 Z M 1.914062 0 " clip-rule="nonzero"/></clipPath></defs><g clip-path="url(#7f7968b5f1)"><path fill="#ffffff" d="M 1.914062 0 L 748.085938 0 L 748.085938 194.003906 L 1.914062 194.003906 Z M 1.914062 0 " fill-opacity="1" fill-rule="nonzero"/><path fill="#02337f" d="M 1.914062 0 L 748.085938 0 L 748.085938 194.003906 L 1.914062 194.003906 Z M 1.914062 0 " fill-opacity="1" fill-rule="nonzero"/></g><g fill="#ffffff" fill-opacity="1"><g transform="translate(49.470161, 128.341842)"><g><path d="M 20.859375 -11.8125 L 40.921875 -11.8125 L 40.921875 0 L 5.546875 0 L 5.546875 -62.859375 L 20.859375 -62.859375 Z M 20.859375 -11.8125 "/></g></g></g><g fill="#ffffff" fill-opacity="1"><g transform="translate(92.181087, 128.341842)"><g><path d="M 35.28125 0.625 C 29.375 0.625 23.957031 -0.742188 19.03125 -3.484375 C 14.101562 -6.234375 10.191406 -10.070312 7.296875 -15 C 4.398438 -19.925781 2.953125 -25.460938 2.953125 -31.609375 C 2.953125 -37.753906 4.398438 -43.273438 7.296875 -48.171875 C 10.191406 -53.066406 14.101562 -56.882812 19.03125 -59.625 C 23.957031 -62.375 29.375 -63.75 35.28125 -63.75 C 41.1875 -63.75 46.601562 -62.375 51.53125 -59.625 C 56.457031 -56.882812 60.335938 -53.066406 63.171875 -48.171875 C 66.003906 -43.273438 67.421875 -37.753906 67.421875 -31.609375 C 67.421875 -25.460938 65.988281 -19.925781 63.125 -15 C 60.257812 -10.070312 56.378906 -6.234375 51.484375 -3.484375 C 46.585938 -0.742188 41.1875 0.625 35.28125 0.625 Z M 35.28125 -13.34375 C 40.289062 -13.34375 44.300781 -15.015625 47.3125 -18.359375 C 50.332031 -21.703125 51.84375 -26.117188 51.84375 -31.609375 C 51.84375 -37.160156 50.332031 -41.59375 47.3125 -44.90625 C 44.300781 -48.21875 40.289062 -49.875 35.28125 -49.875 C 30.207031 -49.875 26.160156 -48.234375 23.140625 -44.953125 C 20.128906 -41.671875 18.625 -37.222656 18.625 -31.609375 C 18.625 -26.054688 20.128906 -21.625 23.140625 -18.3125 C 26.160156 -15 30.207031 -13.34375 35.28125 -13.34375 Z M 35.28125 -13.34375 "/></g></g></g><g fill="#ffffff" fill-opacity="1"><g transform="translate(162.560104, 128.341842)"><g><path d="M 50.765625 -62.859375 L 50.765625 -50.59375 L 34.125 -50.59375 L 34.125 0 L 18.8125 0 L 18.8125 -50.59375 L 2.15625 -50.59375 L 2.15625 -62.859375 Z M 50.765625 -62.859375 "/></g></g></g><g fill="#ffffff" fill-opacity="1"><g transform="translate(215.478677, 128.341842)"><g><path d="M 50.765625 -62.859375 L 50.765625 -50.59375 L 34.125 -50.59375 L 34.125 0 L 18.8125 0 L 18.8125 -50.59375 L 2.15625 -50.59375 L 2.15625 -62.859375 Z M 50.765625 -62.859375 "/></g></g></g><g fill="#ffffff" fill-opacity="1"><g transform="translate(268.39724, 128.341842)"><g><path d="M 35.28125 0.625 C 29.375 0.625 23.957031 -0.742188 19.03125 -3.484375 C 14.101562 -6.234375 10.191406 -10.070312 7.296875 -15 C 4.398438 -19.925781 2.953125 -25.460938 2.953125 -31.609375 C 2.953125 -37.753906 4.398438 -43.273438 7.296875 -48.171875 C 10.191406 -53.066406 14.101562 -56.882812 19.03125 -59.625 C 23.957031 -62.375 29.375 -63.75 35.28125 -63.75 C 41.1875 -63.75 46.601562 -62.375 51.53125 -59.625 C 56.457031 -56.882812 60.335938 -53.066406 63.171875 -48.171875 C 66.003906 -43.273438 67.421875 -37.753906 67.421875 -31.609375 C 67.421875 -25.460938 65.988281 -19.925781 63.125 -15 C 60.257812 -10.070312 56.378906 -6.234375 51.484375 -3.484375 C 46.585938 -0.742188 41.1875 0.625 35.28125 0.625 Z M 35.28125 -13.34375 C 40.289062 -13.34375 44.300781 -15.015625 47.3125 -18.359375 C 50.332031 -21.703125 51.84375 -26.117188 51.84375 -31.609375 C 51.84375 -37.160156 50.332031 -41.59375 47.3125 -44.90625 C 44.300781 -48.21875 40.289062 -49.875 35.28125 -49.875 C 30.207031 -49.875 26.160156 -48.234375 23.140625 -44.953125 C 20.128906 -41.671875 18.625 -37.222656 18.625 -31.609375 C 18.625 -26.054688 20.128906 -21.625 23.140625 -18.3125 C 26.160156 -15 30.207031 -13.34375 35.28125 -13.34375 Z M 35.28125 -13.34375 "/></g></g></g><g fill="#ffffff" fill-opacity="1"><g transform="translate(338.776256, 128.341842)"><g><path d="M 76.734375 -62.859375 L 76.734375 0 L 61.421875 0 L 61.421875 -37.703125 L 47.375 0 L 35.015625 0 L 20.859375 -37.78125 L 20.859375 0 L 5.546875 0 L 5.546875 -62.859375 L 23.640625 -62.859375 L 41.28125 -19.34375 L 58.75 -62.859375 Z M 76.734375 -62.859375 "/></g></g></g><g fill="#ffffff" fill-opacity="1"><g transform="translate(420.974634, 128.341842)"><g><path d="M 44.6875 -11.109375 L 21.21875 -11.109375 L 17.46875 0 L 1.4375 0 L 24.171875 -62.859375 L 41.90625 -62.859375 L 64.65625 0 L 48.4375 0 Z M 40.75 -22.921875 L 32.953125 -45.9375 L 25.25 -22.921875 Z M 40.75 -22.921875 "/></g></g></g><g fill="#ffffff" fill-opacity="1"><g transform="translate(486.96617, 128.341842)"><g><path d="M 50.765625 -62.859375 L 50.765625 -50.59375 L 34.125 -50.59375 L 34.125 0 L 18.8125 0 L 18.8125 -50.59375 L 2.15625 -50.59375 L 2.15625 -62.859375 Z M 50.765625 -62.859375 "/></g></g></g><g fill="#ffffff" fill-opacity="1"><g transform="translate(539.884732, 128.341842)"><g><path d="M 20.859375 -62.859375 L 20.859375 0 L 5.546875 0 L 5.546875 -62.859375 Z M 20.859375 -62.859375 "/></g></g></g><g fill="#ffffff" fill-opacity="1"><g transform="translate(566.299244, 128.341842)"><g><path d="M 2.953125 -31.515625 C 2.953125 -37.722656 4.296875 -43.257812 6.984375 -48.125 C 9.671875 -52.988281 13.414062 -56.78125 18.21875 -59.5 C 23.03125 -62.21875 28.476562 -63.578125 34.5625 -63.578125 C 42.03125 -63.578125 48.421875 -61.609375 53.734375 -57.671875 C 59.046875 -53.734375 62.597656 -48.359375 64.390625 -41.546875 L 47.546875 -41.546875 C 46.296875 -44.171875 44.519531 -46.171875 42.21875 -47.546875 C 39.925781 -48.921875 37.316406 -49.609375 34.390625 -49.609375 C 29.671875 -49.609375 25.847656 -47.96875 22.921875 -44.6875 C 19.992188 -41.40625 18.53125 -37.015625 18.53125 -31.515625 C 18.53125 -26.023438 19.992188 -21.640625 22.921875 -18.359375 C 25.847656 -15.078125 29.671875 -13.4375 34.390625 -13.4375 C 37.316406 -13.4375 39.925781 -14.117188 42.21875 -15.484375 C 44.519531 -16.859375 46.296875 -18.859375 47.546875 -21.484375 L 64.390625 -21.484375 C 62.597656 -14.679688 59.046875 -9.320312 53.734375 -5.40625 C 48.421875 -1.5 42.03125 0.453125 34.5625 0.453125 C 28.476562 0.453125 23.03125 -0.90625 18.21875 -3.625 C 13.414062 -6.34375 9.671875 -10.117188 6.984375 -14.953125 C 4.296875 -19.785156 2.953125 -25.304688 2.953125 -31.515625 Z M 2.953125 -31.515625 "/></g></g></g><g fill="#ffffff" fill-opacity="1"><g transform="translate(634.529254, 128.341842)"><g><path d="M 44.6875 -11.109375 L 21.21875 -11.109375 L 17.46875 0 L 1.4375 0 L 24.171875 -62.859375 L 41.90625 -62.859375 L 64.65625 0 L 48.4375 0 Z M 40.75 -22.921875 L 32.953125 -45.9375 L 25.25 -22.921875 Z M 40.75 -22.921875 "/></g></g></g></svg>