<svg id="MARATHONBET" xmlns="http://www.w3.org/2000/svg" viewBox="0 0 1000 260"><defs><style>.cls-1{fill:#233773;}.cls-2{fill:#fff;}</style></defs><rect id="sfondo" class="cls-1" width="1000" height="260"/><g id="MARATHONBET-2" data-name="MARATHONBET"><path class="cls-2" d="M69.85,169.25a2.77,2.77,0,0,1-.87-2V92.48a2.7,2.7,0,0,1,.87-2.07,2.86,2.86,0,0,1,2-.8H84.28a4.22,4.22,0,0,1,4,2.53l20.23,36.22,20.25-36.22a4.2,4.2,0,0,1,4-2.53h12.31a3,3,0,0,1,2.12.8,2.7,2.7,0,0,1,.86,2.07v74.75a2.67,2.67,0,0,1-.86,2.07,3,3,0,0,1-2.12.81H131.43a3,3,0,0,1-2.13-.81,2.7,2.7,0,0,1-.86-2.07V124.11l-12.88,24a4.51,4.51,0,0,1-4,2.65h-6a3.93,3.93,0,0,1-2.42-.69,6,6,0,0,1-1.61-2l-13-24v43.12a2.87,2.87,0,0,1-.81,2,2.73,2.73,0,0,1-2.07.86H71.86A2.76,2.76,0,0,1,69.85,169.25Z"/><path class="cls-2" d="M157.94,169.36a2.3,2.3,0,0,1-.75-1.67,3.72,3.72,0,0,1,.11-1l27-73.83a4.2,4.2,0,0,1,1.49-2.3,4.62,4.62,0,0,1,3-.92h17a4.58,4.58,0,0,1,3,.92,4.16,4.16,0,0,1,1.5,2.3l26.91,73.83.23,1a2.3,2.3,0,0,1-.75,1.67,2.43,2.43,0,0,1-1.78.75H220.78a3.58,3.58,0,0,1-3.68-2.42L212.62,156H181.91l-4.37,11.73a3.66,3.66,0,0,1-3.79,2.42H159.6A2.28,2.28,0,0,1,157.94,169.36Zm50.08-30L197.32,109,186.63,139.4Z"/><path class="cls-2" d="M247.41,169.25a2.77,2.77,0,0,1-.87-2V92.48a2.7,2.7,0,0,1,.87-2.07,2.86,2.86,0,0,1,2-.8H280.7q15.06,0,23.52,6.84t8.45,19.38a23.91,23.91,0,0,1-3.8,13.68,24.3,24.3,0,0,1-10.46,8.63l15.75,28.29a2.87,2.87,0,0,1,.35,1.26,2.58,2.58,0,0,1-2.42,2.42H296.8a4.81,4.81,0,0,1-4.72-3.11L279,141.7H267.24v25.53a2.67,2.67,0,0,1-.86,2.07,3,3,0,0,1-2.13.81H249.42A2.76,2.76,0,0,1,247.41,169.25Zm33.06-43.88c3.52,0,6.21-.86,8-2.58a9.39,9.39,0,0,0,2.76-7.19,9.9,9.9,0,0,0-2.7-7.31q-2.71-2.7-8.11-2.7H267.24v19.78Z"/><path class="cls-2" d="M319.74,169.36a2.3,2.3,0,0,1-.75-1.67,3.31,3.31,0,0,1,.12-1l27-73.83a4.16,4.16,0,0,1,1.5-2.3,4.58,4.58,0,0,1,3-.92h17a4.62,4.62,0,0,1,3,.92,4.2,4.2,0,0,1,1.49,2.3L399,166.66l.23,1a2.3,2.3,0,0,1-.75,1.67,2.41,2.41,0,0,1-1.78.75H382.59a3.58,3.58,0,0,1-3.68-2.42L374.42,156h-30.7l-4.37,11.73a3.67,3.67,0,0,1-3.8,2.42H321.41A2.3,2.3,0,0,1,319.74,169.36Zm50.08-30L359.13,109l-10.7,30.36Z"/><path class="cls-2" d="M418.75,169.25a2.79,2.79,0,0,1-.86-2V107.66H397.42a2.94,2.94,0,0,1-2.87-2.87V92.48a2.7,2.7,0,0,1,.86-2.07,2.86,2.86,0,0,1,2-.8h61.87a2.84,2.84,0,0,1,2.07.8,2.8,2.8,0,0,1,.81,2.07v12.31a2.8,2.8,0,0,1-.81,2.07,2.84,2.84,0,0,1-2.07.8H438.82v59.57a2.9,2.9,0,0,1-.8,2,2.73,2.73,0,0,1-2.07.86H420.77A2.79,2.79,0,0,1,418.75,169.25Z"/><path class="cls-2" d="M473.43,169.3a2.8,2.8,0,0,1-.8-2.07V92.48a2.73,2.73,0,0,1,.86-2.07,2.9,2.9,0,0,1,2-.8h14.84a3,3,0,0,1,2.13.8,2.73,2.73,0,0,1,.86,2.07V120.2h28.29V92.48a2.74,2.74,0,0,1,2.87-2.87h14.84a2.84,2.84,0,0,1,2.07.8,2.8,2.8,0,0,1,.81,2.07v74.75a2.77,2.77,0,0,1-.81,2.07,2.8,2.8,0,0,1-2.07.81H524.49a2.76,2.76,0,0,1-2.87-2.88V138.6H493.33v28.63a2.7,2.7,0,0,1-.86,2.07,3,3,0,0,1-2.13.81H475.5A2.8,2.8,0,0,1,473.43,169.3Z"/><path class="cls-2" d="M565.66,163.32q-9.31-7.94-9.89-23.34c-.07-2.23-.11-5.52-.11-9.89s0-7.78.11-10q.59-15.18,10.07-23.4t25.35-8.22q15.87,0,25.42,8.22t10,23.4c.16,4.45.23,7.78.23,10s-.07,5.44-.23,9.89q-.57,15.41-9.89,23.34t-25.53,7.94Q575,171.26,565.66,163.32Zm35.6-12.42q3.74-3.79,4-11.61c.16-4.45.23-7.59.23-9.43,0-2-.07-5.14-.23-9.43q-.22-7.83-4-11.62a13.53,13.53,0,0,0-10-3.79,13.31,13.31,0,0,0-9.94,3.79q-3.75,3.8-4.09,11.62c-.07,2.14-.11,5.29-.11,9.43s0,7.2.11,9.43q.35,7.82,4,11.61t10,3.8Q597.52,154.7,601.26,150.9Z"/><path class="cls-2" d="M641,169.25a2.79,2.79,0,0,1-.86-2V92.48a2.73,2.73,0,0,1,.86-2.07,2.9,2.9,0,0,1,2-.8h12.19a3.93,3.93,0,0,1,3.91,2.18L687.22,136V92.48a2.7,2.7,0,0,1,.86-2.07,2.9,2.9,0,0,1,2-.8h13.8a2.76,2.76,0,0,1,2.88,2.87v74.64a3,3,0,0,1-.81,2.13,2.7,2.7,0,0,1-2.07.86h-12.3a4.12,4.12,0,0,1-3.8-2.19l-28.06-42.55v41.86a2.9,2.9,0,0,1-.8,2,2.73,2.73,0,0,1-2.07.86h-13.8A2.79,2.79,0,0,1,641,169.25Z"/><path class="cls-2" d="M723.73,169.25a2.79,2.79,0,0,1-.86-2V92.48a2.73,2.73,0,0,1,.86-2.07,2.88,2.88,0,0,1,2-.8h35.08q14.49,0,21.56,5.92t7.07,16.85a15.9,15.9,0,0,1-2.93,9.71,18.69,18.69,0,0,1-6.61,5.81,19.23,19.23,0,0,1,7.93,7,19,19,0,0,1,3.22,10.81q0,11.49-7.59,17.94t-21.62,6.44H725.74A2.77,2.77,0,0,1,723.73,169.25Zm34.79-47.67q4.59,0,7-2.36A8.36,8.36,0,0,0,768,113a8,8,0,0,0-2.42-6.09c-1.61-1.54-3.95-2.3-7-2.3H743.57v17Zm1,33.58a9.7,9.7,0,0,0,7.36-2.76,9.32,9.32,0,0,0,2.65-6.67,9.43,9.43,0,0,0-2.65-6.85,9.82,9.82,0,0,0-7.36-2.7h-16v19Z"/><path class="cls-2" d="M804.69,169.25a2.76,2.76,0,0,1-.86-2V92.48a2.7,2.7,0,0,1,.86-2.07,2.86,2.86,0,0,1,2-.8h53.71a2.74,2.74,0,0,1,2.87,2.87v10.81a2.86,2.86,0,0,1-.8,2,2.7,2.7,0,0,1-2.07.87H823.72v15.52h34.16a2.73,2.73,0,0,1,2.07.86,3,3,0,0,1,.8,2.13v10a2.88,2.88,0,0,1-.8,2,2.7,2.7,0,0,1-2.07.86H823.72v16h37.61a2.74,2.74,0,0,1,2.87,2.87v10.81a2.9,2.9,0,0,1-.8,2,2.73,2.73,0,0,1-2.07.86H806.7A2.76,2.76,0,0,1,804.69,169.25Z"/><path class="cls-2" d="M895.88,169.25a2.79,2.79,0,0,1-.86-2V107.66H874.55a2.94,2.94,0,0,1-2.87-2.87V92.48a2.7,2.7,0,0,1,.86-2.07,2.86,2.86,0,0,1,2-.8h61.87a2.84,2.84,0,0,1,2.07.8,2.8,2.8,0,0,1,.81,2.07v12.31a2.8,2.8,0,0,1-.81,2.07,2.84,2.84,0,0,1-2.07.8H916v59.57a2.9,2.9,0,0,1-.8,2,2.73,2.73,0,0,1-2.07.86H897.9A2.79,2.79,0,0,1,895.88,169.25Z"/></g></svg>