<svg xmlns="http://www.w3.org/2000/svg" xmlns:xlink="http://www.w3.org/1999/xlink" width="1000" zoomAndPan="magnify" viewBox="0 0 750 195.000001" height="260" preserveAspectRatio="xMidYMid meet" version="1.0"><defs><g/><clipPath id="602affcb46"><path d="M 1.914062 0 L 748.085938 0 L 748.085938 194.003906 L 1.914062 194.003906 Z M 1.914062 0 " clip-rule="nonzero"/></clipPath></defs><g clip-path="url(#602affcb46)"><path fill="#ffffff" d="M 1.914062 0 L 748.085938 0 L 748.085938 194.003906 L 1.914062 194.003906 Z M 1.914062 0 " fill-opacity="1" fill-rule="nonzero"/><path fill="#000000" d="M 1.914062 0 L 748.085938 0 L 748.085938 194.003906 L 1.914062 194.003906 Z M 1.914062 0 " fill-opacity="1" fill-rule="nonzero"/></g><g fill="#ffffff" fill-opacity="1"><g transform="translate(156.919137, 143.265311)"><g><path d="M 49.546875 0 L 49.546875 -36.03125 C 49.546875 -40.414062 48.914062 -43.722656 47.65625 -45.953125 C 46.394531 -48.191406 44.363281 -49.3125 41.5625 -49.3125 C 37.71875 -49.3125 34.9375 -47.773438 33.21875 -44.703125 C 31.507812 -41.640625 30.65625 -36.378906 30.65625 -28.921875 L 30.65625 0 L 7.875 0 L 7.875 -66.046875 L 25.0625 -66.046875 L 27.921875 -57.890625 L 29.265625 -57.890625 C 31.203125 -60.992188 33.890625 -63.320312 37.328125 -64.875 C 40.773438 -66.4375 44.734375 -67.21875 49.203125 -67.21875 C 56.503906 -67.21875 62.1875 -65.097656 66.25 -60.859375 C 70.3125 -56.617188 72.34375 -50.65625 72.34375 -42.96875 L 72.34375 0 Z M 49.546875 0 "/></g></g><g transform="translate(236.899603, 143.265311)"><g><path d="M 39.765625 1.171875 C 28.765625 1.171875 20.222656 -1.75 14.140625 -7.59375 C 8.054688 -13.445312 5.015625 -21.78125 5.015625 -32.59375 C 5.015625 -43.738281 7.832031 -52.296875 13.46875 -58.265625 C 19.101562 -64.234375 27.144531 -67.21875 37.59375 -67.21875 C 47.550781 -67.21875 55.238281 -64.625 60.65625 -59.4375 C 66.082031 -54.25 68.796875 -46.773438 68.796875 -37.015625 L 68.796875 -26.875 L 28.046875 -26.875 C 28.203125 -23.1875 29.550781 -20.289062 32.09375 -18.1875 C 34.632812 -16.09375 38.101562 -15.046875 42.5 -15.046875 C 46.5 -15.046875 50.179688 -15.421875 53.546875 -16.171875 C 56.910156 -16.929688 60.550781 -18.222656 64.46875 -20.046875 L 64.46875 -3.671875 C 60.894531 -1.847656 57.203125 -0.585938 53.390625 0.109375 C 49.585938 0.816406 45.046875 1.171875 39.765625 1.171875 Z M 38.421875 -51.703125 C 35.734375 -51.703125 33.484375 -50.859375 31.671875 -49.171875 C 29.867188 -47.484375 28.8125 -44.832031 28.5 -41.21875 L 48.09375 -41.21875 C 48.019531 -44.40625 47.117188 -46.945312 45.390625 -48.84375 C 43.660156 -50.75 41.335938 -51.703125 38.421875 -51.703125 Z M 38.421875 -51.703125 "/></g></g><g transform="translate(310.70082, 143.265311)"><g><path d="M 40.21875 -16.84375 C 43.289062 -16.84375 46.96875 -17.601562 51.25 -19.125 L 51.25 -2.5 C 48.175781 -1.1875 45.25 -0.25 42.46875 0.3125 C 39.6875 0.882812 36.429688 1.171875 32.703125 1.171875 C 25.046875 1.171875 19.523438 -0.703125 16.140625 -4.453125 C 12.765625 -8.203125 11.078125 -13.96875 11.078125 -21.75 L 11.078125 -48.96875 L 3.09375 -48.96875 L 3.09375 -58.234375 L 13.234375 -65.40625 L 19.125 -79.28125 L 34.046875 -79.28125 L 34.046875 -66.046875 L 50.25 -66.046875 L 50.25 -48.96875 L 34.046875 -48.96875 L 34.046875 -23.265625 C 34.046875 -18.984375 36.101562 -16.84375 40.21875 -16.84375 Z M 40.21875 -16.84375 "/></g></g><g transform="translate(365.614522, 143.265311)"><g><path d="M 64.703125 0 L 57.25 -31.484375 L 55.5 -40.984375 L 54.328125 -48.625 L 53.984375 -48.625 C 52.078125 -37.738281 50.796875 -30.878906 50.140625 -28.046875 L 43.4375 0 L 19.46875 0 L 1.453125 -66.046875 L 23.90625 -66.046875 L 29.265625 -40.6875 C 30.972656 -31.976562 31.960938 -24.75 32.234375 -19 L 32.59375 -19 C 32.707031 -22.582031 33.773438 -29.382812 35.796875 -39.40625 L 41.921875 -66.046875 L 67.09375 -66.046875 L 72.703125 -39.0625 C 74.484375 -30.46875 75.609375 -23.78125 76.078125 -19 L 76.421875 -19 C 76.660156 -21.957031 77.050781 -25.640625 77.59375 -30.046875 C 78.132812 -34.460938 78.738281 -38.007812 79.40625 -40.6875 L 85.234375 -66.046875 L 107.203125 -66.046875 L 89.078125 0 Z M 64.703125 0 "/></g></g><g transform="translate(474.276029, 143.265311)"><g><path d="M 30.78125 0 L 7.984375 0 L 7.984375 -66.046875 L 30.78125 -66.046875 Z M 7.40625 -82.484375 C 7.40625 -85.910156 8.351562 -88.457031 10.25 -90.125 C 12.15625 -91.789062 15.226562 -92.625 19.46875 -92.625 C 23.707031 -92.625 26.796875 -91.769531 28.734375 -90.0625 C 30.679688 -88.351562 31.65625 -85.828125 31.65625 -82.484375 C 31.65625 -75.804688 27.59375 -72.46875 19.46875 -72.46875 C 11.425781 -72.46875 7.40625 -75.804688 7.40625 -82.484375 Z M 7.40625 -82.484375 "/></g></g><g transform="translate(513.100366, 143.265311)"><g><path d="M 49.546875 0 L 49.546875 -36.03125 C 49.546875 -40.414062 48.914062 -43.722656 47.65625 -45.953125 C 46.394531 -48.191406 44.363281 -49.3125 41.5625 -49.3125 C 37.71875 -49.3125 34.9375 -47.773438 33.21875 -44.703125 C 31.507812 -41.640625 30.65625 -36.378906 30.65625 -28.921875 L 30.65625 0 L 7.875 0 L 7.875 -66.046875 L 25.0625 -66.046875 L 27.921875 -57.890625 L 29.265625 -57.890625 C 31.203125 -60.992188 33.890625 -63.320312 37.328125 -64.875 C 40.773438 -66.4375 44.734375 -67.21875 49.203125 -67.21875 C 56.503906 -67.21875 62.1875 -65.097656 66.25 -60.859375 C 70.3125 -56.617188 72.34375 -50.65625 72.34375 -42.96875 L 72.34375 0 Z M 49.546875 0 "/></g></g></g></svg>