<svg id="Planetwin365" xmlns="http://www.w3.org/2000/svg" viewBox="0 0 1000 260"><defs><style>.cls-1{fill:#ffdf31;}</style></defs><rect id="sfondo" width="1000" height="260"/><g id="Planetwin365-2" data-name="Planetwin365"><path class="cls-1" d="M60,169.25a2.77,2.77,0,0,1-.87-2V92.48A2.7,2.7,0,0,1,60,90.41a2.86,2.86,0,0,1,2-.8h32.2q14.72,0,23.17,6.78t8.45,19.78q0,12.89-8.39,19.38t-23.23,6.5H80.54v25.18a2.67,2.67,0,0,1-.86,2.07,3,3,0,0,1-2.13.81H62A2.76,2.76,0,0,1,60,169.25Zm33.63-43.07c3.38,0,6-.87,7.94-2.59s2.87-4.27,2.87-7.65a10.43,10.43,0,0,0-2.7-7.53q-2.7-2.82-8.11-2.82H80.2v20.59Z"/><path class="cls-1" d="M137.75,169.25a2.79,2.79,0,0,1-.86-2V92.48a2.73,2.73,0,0,1,.86-2.07,2.9,2.9,0,0,1,2-.8H155a2.74,2.74,0,0,1,2.87,2.87v60.26h34.85a2.73,2.73,0,0,1,2.07.86,3,3,0,0,1,.8,2.13v11.5a2.9,2.9,0,0,1-.8,2,2.73,2.73,0,0,1-2.07.86h-52.9A2.79,2.79,0,0,1,137.75,169.25Z"/><path class="cls-1" d="M199.28,169.36a2.3,2.3,0,0,1-.75-1.67,3.31,3.31,0,0,1,.12-1l27-73.83a4.16,4.16,0,0,1,1.5-2.3,4.58,4.58,0,0,1,3-.92h17a4.62,4.62,0,0,1,3,.92,4.2,4.2,0,0,1,1.49,2.3l26.91,73.83.23,1a2.3,2.3,0,0,1-.75,1.67,2.43,2.43,0,0,1-1.78.75H262.13a3.58,3.58,0,0,1-3.68-2.42L254,156h-30.7l-4.37,11.73a3.67,3.67,0,0,1-3.8,2.42H201A2.3,2.3,0,0,1,199.28,169.36Zm50.08-30L238.67,109,228,139.4Z"/><path class="cls-1" d="M288.75,169.25a2.77,2.77,0,0,1-.87-2V92.48a2.7,2.7,0,0,1,.87-2.07,2.86,2.86,0,0,1,2-.8H303a3.93,3.93,0,0,1,3.91,2.18L334.92,136V92.48a2.73,2.73,0,0,1,.86-2.07,2.9,2.9,0,0,1,2-.8h13.8a2.76,2.76,0,0,1,2.88,2.87v74.64a3,3,0,0,1-.81,2.13,2.7,2.7,0,0,1-2.07.86h-12.3a4.12,4.12,0,0,1-3.8-2.19l-28.06-42.55v41.86a2.86,2.86,0,0,1-.8,2,2.73,2.73,0,0,1-2.07.86h-13.8A2.76,2.76,0,0,1,288.75,169.25Z"/><path class="cls-1" d="M371.43,169.25a2.79,2.79,0,0,1-.86-2V92.48a2.73,2.73,0,0,1,.86-2.07,2.9,2.9,0,0,1,2-.8h53.71A2.74,2.74,0,0,1,430,92.48v10.81a2.86,2.86,0,0,1-.8,2,2.7,2.7,0,0,1-2.07.87H390.46v15.52h34.16a2.73,2.73,0,0,1,2.07.86,3,3,0,0,1,.8,2.13v10a2.88,2.88,0,0,1-.8,2,2.7,2.7,0,0,1-2.07.86H390.46v16h37.61a2.74,2.74,0,0,1,2.87,2.87v10.81a2.9,2.9,0,0,1-.8,2,2.73,2.73,0,0,1-2.07.86H373.44A2.79,2.79,0,0,1,371.43,169.25Z"/><path class="cls-1" d="M462.62,169.25a2.79,2.79,0,0,1-.86-2V107.66H441.29a2.73,2.73,0,0,1-2-.86,2.77,2.77,0,0,1-.86-2V92.48a2.73,2.73,0,0,1,.86-2.07,2.88,2.88,0,0,1,2-.8h61.87A2.76,2.76,0,0,1,506,92.48v12.31a2.76,2.76,0,0,1-2.88,2.87H482.69v59.57a2.9,2.9,0,0,1-.8,2,2.73,2.73,0,0,1-2.07.86H464.64A2.79,2.79,0,0,1,462.62,169.25Z"/><path class="cls-1" d="M526.28,169a4.41,4.41,0,0,1-1.38-2.7L512.36,92.83a2.48,2.48,0,0,1-.11-.81,2.31,2.31,0,0,1,.74-1.67,2.35,2.35,0,0,1,1.67-.74h14.26q3.23,0,3.57,2.53L540,137l8.28-26.45q1.26-3.11,3.8-3.11h8.28c1.91,0,3.18,1,3.79,3.11L572.39,137l7.48-44.85c.23-1.69,1.41-2.53,3.56-2.53h14.26a2.46,2.46,0,0,1,1.78.74,2.32,2.32,0,0,1,.75,1.67l-.11.81-12.54,73.48a4.29,4.29,0,0,1-1.44,2.7,4.35,4.35,0,0,1-3,1.1H572.16a4.17,4.17,0,0,1-2.87-.92,5.65,5.65,0,0,1-1.5-2.07l-11.61-32.89-11.62,32.89a4.12,4.12,0,0,1-4.25,3H529.38A4.3,4.3,0,0,1,526.28,169Z"/><path class="cls-1" d="M612.93,169.25a2.76,2.76,0,0,1-.86-2V92.48a2.7,2.7,0,0,1,.86-2.07,2.86,2.86,0,0,1,2-.8h15.41a3,3,0,0,1,2.13.8,2.73,2.73,0,0,1,.86,2.07v74.75a2.7,2.7,0,0,1-.86,2.07,3,3,0,0,1-2.13.81H614.94A2.76,2.76,0,0,1,612.93,169.25Z"/><path class="cls-1" d="M650.19,169.25a2.77,2.77,0,0,1-.87-2V92.48a2.7,2.7,0,0,1,.87-2.07,2.86,2.86,0,0,1,2-.8h12.19a3.93,3.93,0,0,1,3.91,2.18L696.36,136V92.48a2.73,2.73,0,0,1,.86-2.07,2.9,2.9,0,0,1,2-.8H713a2.76,2.76,0,0,1,2.88,2.87v74.64a3,3,0,0,1-.81,2.13,2.7,2.7,0,0,1-2.07.86h-12.3a4.12,4.12,0,0,1-3.8-2.19l-28.06-42.55v41.86a2.9,2.9,0,0,1-.8,2,2.73,2.73,0,0,1-2.07.86H652.2A2.76,2.76,0,0,1,650.19,169.25Z"/><path class="cls-1" d="M742.65,167.81q-7.54-3.45-11.16-8.57A19.24,19.24,0,0,1,727.64,149a2.26,2.26,0,0,1,.75-1.73,2.52,2.52,0,0,1,1.78-.69h15.06a4.17,4.17,0,0,1,2.07.46,4.31,4.31,0,0,1,1.5,1.73q2.3,6,12.53,6,5.86,0,9.15-2.7a9.13,9.13,0,0,0,3.27-7.42q0-9.21-12-9.2H749a3,3,0,0,1-2.88-2.88v-6.44a4.62,4.62,0,0,1,1.84-3.91l18.86-16h-32a3,3,0,0,1-2.87-2.88V92.48a2.73,2.73,0,0,1,.86-2.07,2.9,2.9,0,0,1,2-.8h52.9a3,3,0,0,1,2.13.8,2.7,2.7,0,0,1,.86,2.07v9.78a4.88,4.88,0,0,1-1.84,3.79l-17.48,16.22.81.23q10.57,1.38,16.73,7.07t6.15,16.27a21.59,21.59,0,0,1-4.37,13.46,27.81,27.81,0,0,1-12.07,8.85,46.15,46.15,0,0,1-17.37,3.11Q750.19,171.26,742.65,167.81Z"/><path class="cls-1" d="M819.93,167.63a28.43,28.43,0,0,1-12.08-10.17,26.64,26.64,0,0,1-4.31-15q0-10.24,9.66-23.35l20.24-27.25a11.69,11.69,0,0,1,1.78-1.67,3.93,3.93,0,0,1,2.36-.63h15.29a2.28,2.28,0,0,1,1.73.74,2.56,2.56,0,0,1,.69,1.79,2.7,2.7,0,0,1-.46,1.49L839.3,114.79a14.54,14.54,0,0,1,3.45-.34,32.17,32.17,0,0,1,13.63,3.85A29.13,29.13,0,0,1,867.13,128a24.71,24.71,0,0,1,4.14,14,27.36,27.36,0,0,1-4.14,14.72,29.17,29.17,0,0,1-11.78,10.58,38,38,0,0,1-17.54,3.91A41.74,41.74,0,0,1,819.93,167.63Zm26.62-16.21a11.47,11.47,0,0,0,3.68-9q0-5.74-3.62-9a13.14,13.14,0,0,0-9-3.22,13.35,13.35,0,0,0-9.09,3.22q-3.68,3.22-3.68,9a11.47,11.47,0,0,0,3.68,9,13.2,13.2,0,0,0,9.09,3.28A13.06,13.06,0,0,0,846.55,151.42Z"/><path class="cls-1" d="M893.7,168.09a26.24,26.24,0,0,1-11.22-8.79,21.86,21.86,0,0,1-4.08-12,2.36,2.36,0,0,1,2.42-2.42h15.41a3.73,3.73,0,0,1,3.68,2.19q3.11,7.71,11.61,7.7a12.34,12.34,0,0,0,8.57-3.16q3.51-3.17,3.51-8.8a10.93,10.93,0,0,0-3.4-8.28,12.12,12.12,0,0,0-8.68-3.22,12.54,12.54,0,0,0-4.77.75,17,17,0,0,0-3.62,2.13,5.91,5.91,0,0,1-3.11,1.49H885a2.45,2.45,0,0,1-1.79-.75,2.4,2.4,0,0,1-.74-1.78l4.14-40.13a3.42,3.42,0,0,1,1.2-2.53,3.86,3.86,0,0,1,2.59-.92h46.12a3,3,0,0,1,2.12.8,2.7,2.7,0,0,1,.87,2.07v10.81a2.67,2.67,0,0,1-.87,2.07,3,3,0,0,1-2.12.81H903.13L901.63,121a21.78,21.78,0,0,1,6.33-2.93,33.85,33.85,0,0,1,9-1,29.79,29.79,0,0,1,13.68,3.28,26.06,26.06,0,0,1,10.29,9.26,24.69,24.69,0,0,1,3.86,13.68,26.1,26.1,0,0,1-15.59,24.5,41.23,41.23,0,0,1-17.76,3.56Q901.06,171.37,893.7,168.09Z"/></g></svg>