<svg id="Sisal" xmlns="http://www.w3.org/2000/svg" viewBox="0 0 1000 260"><defs><style>.cls-1{fill:#f4f4f5;}.cls-2{fill:#1b6331;}</style></defs><rect id="sfondo" class="cls-1" width="1000" height="260"/><g id="Sisal-2" data-name="Sisal"><path class="cls-2" d="M321.33,188.26q-11.91-4.9-17.94-12.87A30,30,0,0,1,297,158a3.54,3.54,0,0,1,1.14-2.54,3.73,3.73,0,0,1,2.71-1.13h22a6.6,6.6,0,0,1,3.41.78,12.29,12.29,0,0,1,2.72,2.37,18.1,18.1,0,0,0,7.35,7.52q5.07,3,13.47,3,10,0,15.23-3.15t5.25-8.58a8.12,8.12,0,0,0-2.72-6.3,24.18,24.18,0,0,0-8.48-4.37A174.58,174.58,0,0,0,342,141.18q-21-4.37-31.42-12.86t-10.41-24.24a32.17,32.17,0,0,1,6-19.07q6-8.4,17-13.13t25.72-4.72q15.22,0,26.43,5.25t17.06,13.21q5.86,8,6.21,15.66a3.59,3.59,0,0,1-3.67,3.68h-23.1a7.37,7.37,0,0,1-3.42-.7A6.78,6.78,0,0,1,366,102q-1.05-4-5.69-6.82a21.77,21.77,0,0,0-11.46-2.8q-7.87,0-12.07,2.8a9.25,9.25,0,0,0-4.2,8.22,8.46,8.46,0,0,0,2.36,6.13q2.36,2.44,7.7,4.46a110.58,110.58,0,0,0,15.31,4.11q16.28,3,26,7.44t14.26,11.55q4.55,7.08,4.55,17.76A32.26,32.26,0,0,1,396,175.22q-6.73,8.67-18.72,13.3a75.54,75.54,0,0,1-27.39,4.64Q333.23,193.16,321.33,188.26Z"/><path class="cls-2" d="M419.33,86.06a4.27,4.27,0,0,1-1.23-3.15V67.16a4.21,4.21,0,0,1,4.38-4.38h21a4.2,4.2,0,0,1,4.37,4.38V82.91a4.18,4.18,0,0,1-4.37,4.37h-21A4.23,4.23,0,0,1,419.33,86.06Zm.17,104.12a4.23,4.23,0,0,1-1.22-3.15V104.78a4.18,4.18,0,0,1,4.37-4.37H443.3a4.2,4.2,0,0,1,4.38,4.37V187a4.32,4.32,0,0,1-1.23,3.06,4.11,4.11,0,0,1-3.15,1.32H422.65A4.27,4.27,0,0,1,419.5,190.18Z"/><path class="cls-2" d="M482.06,189.13q-9.54-4-14.08-9.62t-4.55-10a3.67,3.67,0,0,1,1.31-2.89,4.34,4.34,0,0,1,2.89-1.13h19.95a2.67,2.67,0,0,1,1.92.87q2.1,1.41,3.15,2.28a40.94,40.94,0,0,0,6.74,4.11,17.15,17.15,0,0,0,7.08,1.31,15.56,15.56,0,0,0,8.32-2,6.34,6.34,0,0,0,3.24-5.69,6.57,6.57,0,0,0-1.67-4.72q-1.67-1.75-6.39-3.41a112.81,112.81,0,0,0-14.34-3.59q-14.53-3-22.32-9.72t-7.78-18.11a23.33,23.33,0,0,1,4.55-13.65q4.55-6.47,13.56-10.5t21.44-4a56.29,56.29,0,0,1,21.7,3.85q9.27,3.84,14.08,9.36t4.82,10.06a4,4,0,0,1-1.14,2.8,3.57,3.57,0,0,1-2.71,1.23H523.62a4.37,4.37,0,0,1-2.62-.88,26.45,26.45,0,0,1-4-2.62,30.52,30.52,0,0,0-5.59-3.5,15.29,15.29,0,0,0-6.48-1.23,11.56,11.56,0,0,0-7.26,2.1,7,7,0,0,0-1.23,9.8q1.48,1.76,6.3,3.41A104.64,104.64,0,0,0,517,136.46q17,3,24.77,10.5a23.8,23.8,0,0,1,7.79,17.67q0,13-11.56,20.74t-32.19,7.79Q491.61,193.16,482.06,189.13Z"/><path class="cls-2" d="M575.51,189.57a29.24,29.24,0,0,1-11.9-9.8A23.64,23.64,0,0,1,559.32,166q0-12.08,9.89-19.42t27.21-10.15l21.88-3.33v-2.45q0-6.65-2.8-9.8t-9.45-3.15a14.07,14.07,0,0,0-6.65,1.4A29.93,29.93,0,0,0,594,123a27.35,27.35,0,0,1-3.67,2.8,1.92,1.92,0,0,1-1.93,1.4H569.3a3.91,3.91,0,0,1-2.89-1.14,3.14,3.14,0,0,1-1-2.71q.16-4.72,4.64-10.5t13.65-10q9.18-4.2,22.66-4.2,21.52,0,31.85,9.53t10.32,25.64V187a4.35,4.35,0,0,1-1.22,3.06,4.11,4.11,0,0,1-3.15,1.32H623.9a4.51,4.51,0,0,1-4.38-4.38v-6.12a28.15,28.15,0,0,1-10.76,8.84,36.64,36.64,0,0,1-16.36,3.41A39.15,39.15,0,0,1,575.51,189.57ZM613.66,168q5-5.25,5-15.4v-2.45l-14.88,2.62q-15.75,2.81-15.75,11a8,8,0,0,0,3.68,6.91,15.32,15.32,0,0,0,8.92,2.54Q608.67,173.21,613.66,168Z"/><path class="cls-2" d="M669.66,190.09a4.2,4.2,0,0,1-1.31-3.06V71.53a4.14,4.14,0,0,1,1.31-3.15,4.39,4.39,0,0,1,3.06-1.22h20.65a4.2,4.2,0,0,1,4.38,4.37V187a4.21,4.21,0,0,1-4.38,4.38H672.72A4.2,4.2,0,0,1,669.66,190.09Z"/></g></svg>