<svg id="SNAI" xmlns="http://www.w3.org/2000/svg" viewBox="0 0 1000 260"><defs><style>.cls-1{fill:#343a46;}.cls-2{fill:#fff;}</style></defs><rect id="sfondo" class="cls-1" width="1000" height="260"/><g id="SNAI-2" data-name="SNAI"><path class="cls-2" d="M310.3,189q-10.94-4.2-16.45-11.2a24.6,24.6,0,0,1-5.51-15.58,38.07,38.07,0,0,1,.35-4.2,4.9,4.9,0,0,1,1.49-2.62,3.86,3.86,0,0,1,2.71-1.05h22.4a6.19,6.19,0,0,1,3.24.7,8.54,8.54,0,0,1,2.36,2.45,13,13,0,0,0,5.69,7.52q4.46,3,12.34,3,10,0,16.1-3.15t7.35-8.58a9.72,9.72,0,0,0,.17-2.1q0-4.37-5.42-6.91t-19.95-6q-17-3.68-25.73-11.11t-8.75-19.51a36.73,36.73,0,0,1,1.05-8.58,39.69,39.69,0,0,1,17.41-25.55q13.92-9.27,36-9.27a56.18,56.18,0,0,1,23.62,4.72q10.32,4.73,16,12t5.69,14.44a18.07,18.07,0,0,1-.17,3,5,5,0,0,1-1.49,2.63,3.86,3.86,0,0,1-2.71,1H374.62q-3.86,0-5.25-3c-.12-2.68-1.52-5-4.2-6.82s-6.19-2.8-10.5-2.8q-7.71,0-12.69,2.8a12.11,12.11,0,0,0-6.21,8.22,11.73,11.73,0,0,0-.18,2.28q0,4.2,5,6.91t17.59,5.51q19.59,3.86,28.61,11t9,19.07a40.47,40.47,0,0,1-1.05,8.75q-3.86,17.85-18.64,27t-39.46,9.19Q321.24,193.16,310.3,189Z"/><path class="cls-2" d="M406.2,190.09a3.69,3.69,0,0,1-.61-3.06L429.74,73.28a5,5,0,0,1,1.92-3.15A5.37,5.37,0,0,1,435,68.91h18.55q4.2,0,5.25,3.32L487.31,140l14.18-66.68a5,5,0,0,1,1.92-3.15,5.37,5.37,0,0,1,3.33-1.22h21a3.72,3.72,0,0,1,3,1.22,3.07,3.07,0,0,1,.88,2.28,2.8,2.8,0,0,1-.18.87L507.09,186.86a5.55,5.55,0,0,1-1.84,3.23,5,5,0,0,1-3.41,1.32H483.29a5.07,5.07,0,0,1-3.5-1,7.81,7.81,0,0,1-1.75-2.36l-28.88-65.27L435.51,187a5,5,0,0,1-1.92,3.15,5.56,5.56,0,0,1-3.5,1.23h-21A3.34,3.34,0,0,1,406.2,190.09Z"/><path class="cls-2" d="M521.61,190.44a3.37,3.37,0,0,1-.87-2.36,4.34,4.34,0,0,1,.52-1.92L586.19,73.81q2.79-4.91,7.87-4.9h27q5.07,0,5.78,4.9l17.15,112.35a4.6,4.6,0,0,1-.88,3.85,4,4,0,0,1-3.15,1.4H618.74q-4.56,0-5.25-4.2l-3-17.33H563.79l-10.5,17.85a7.76,7.76,0,0,1-6.48,3.68H524.06A3.13,3.13,0,0,1,521.61,190.44Zm87.15-45.76-6.47-46.2-26.08,46.2Z"/><path class="cls-2" d="M658.29,190.09a3.53,3.53,0,0,1-.71-3.06L681.91,73.28a5,5,0,0,1,1.92-3.15,5.37,5.37,0,0,1,3.33-1.22h23.63a3.72,3.72,0,0,1,3,1.22,3.82,3.82,0,0,1,.7,2.1,3.49,3.49,0,0,1-.17,1L690.13,187a5,5,0,0,1-1.92,3.15,5.33,5.33,0,0,1-3.33,1.23H661.26A3.56,3.56,0,0,1,658.29,190.09Z"/></g></svg>