<svg id="WilliamHILL" xmlns="http://www.w3.org/2000/svg" viewBox="0 0 1000 260"><defs><style>.cls-1{fill:#1b1d3c;}.cls-2{fill:#f4e600;}.cls-3{fill:#fff;}</style></defs><rect id="sfondo" class="cls-1" width="1000" height="260"/><g id="WilliamHILL-2" data-name="WilliamHILL"><path class="cls-2" d="M82.71,181.11a4.59,4.59,0,0,1-1.13-3.53L84.73,81a4,4,0,0,1,1.2-2.4,3.47,3.47,0,0,1,2.55-1h18.15q4.2,0,3.9,3.6l-2.4,57.6L126,104.83q2.4-4,5.85-4h10.65q3.75,0,4.2,4l3.75,34.35,22.2-58.35a4.55,4.55,0,0,1,1.8-2.55,6.54,6.54,0,0,1,3.45-.75h19.2a2.55,2.55,0,0,1,1.88.68,2.32,2.32,0,0,1,.67,1.72,4.76,4.76,0,0,1-.3,1.35l-35.55,96.3a8.92,8.92,0,0,1-2.7,3.53,6.79,6.79,0,0,1-4.35,1.42H142.18q-4.05,0-4.8-3.9L130,135.73l-22.8,42.9a6.76,6.76,0,0,1-6.3,3.9H86.53A4.86,4.86,0,0,1,82.71,181.11Z"/><path class="cls-2" d="M193,181.48a3.09,3.09,0,0,1-.6-2.7l15-70.5a4.29,4.29,0,0,1,1.65-2.7,4.77,4.77,0,0,1,3-1h17.7a3,3,0,0,1,2.4,1,2.79,2.79,0,0,1,.6,1.8,2.83,2.83,0,0,1-.15.9l-14.85,70.5a4.29,4.29,0,0,1-1.65,2.7,4.57,4.57,0,0,1-2.85,1.05h-17.7A3.18,3.18,0,0,1,193,181.48Zm18.83-89.25a3.67,3.67,0,0,1-.68-2.7l3-13.5a4.29,4.29,0,0,1,1.65-2.7,4.57,4.57,0,0,1,2.85-1h18a3.18,3.18,0,0,1,2.55,1,3.23,3.23,0,0,1,.6,1.8,2.83,2.83,0,0,1-.15.9l-2.85,13.5a4.4,4.4,0,0,1-1.57,2.7,4.48,4.48,0,0,1-2.93,1h-18A2.94,2.94,0,0,1,211.86,92.23Z"/><path class="cls-2" d="M235.93,181.48a3.09,3.09,0,0,1-.6-2.7l21.15-99A4.57,4.57,0,0,1,261,76h17.7a3.18,3.18,0,0,1,2.55,1,3.23,3.23,0,0,1,.6,1.8,2.83,2.83,0,0,1-.15.9l-21,99a4.29,4.29,0,0,1-1.65,2.7,4.57,4.57,0,0,1-2.85,1.05h-17.7A3.18,3.18,0,0,1,235.93,181.48Z"/><path class="cls-2" d="M279,181.48a3.09,3.09,0,0,1-.6-2.7l21.15-99a4.4,4.4,0,0,1,1.57-2.7A4.48,4.48,0,0,1,304,76h17.7a3.18,3.18,0,0,1,2.55,1,3.23,3.23,0,0,1,.6,1.8,2.83,2.83,0,0,1-.15.9l-21,99a4.29,4.29,0,0,1-1.65,2.7,4.57,4.57,0,0,1-2.85,1.05h-17.7A3.18,3.18,0,0,1,279,181.48Z"/><path class="cls-2" d="M322,181.48a3.09,3.09,0,0,1-.6-2.7l15-70.5a4.29,4.29,0,0,1,1.65-2.7,4.77,4.77,0,0,1,3-1h17.7a3,3,0,0,1,2.4,1,2.79,2.79,0,0,1,.6,1.8,2.83,2.83,0,0,1-.15.9l-14.85,70.5a4.29,4.29,0,0,1-1.65,2.7,4.57,4.57,0,0,1-2.85,1.05h-17.7A3.18,3.18,0,0,1,322,181.48Zm18.82-89.25a3.67,3.67,0,0,1-.67-2.7l3-13.5a4.29,4.29,0,0,1,1.65-2.7,4.57,4.57,0,0,1,2.85-1h18a3.18,3.18,0,0,1,2.55,1,3.23,3.23,0,0,1,.6,1.8,2.83,2.83,0,0,1-.15.9l-2.85,13.5a4.57,4.57,0,0,1-4.5,3.75h-18A3,3,0,0,1,340.85,92.23Z"/><path class="cls-2" d="M374,177.06q-6.83-7-6.82-19.58a63.68,63.68,0,0,1,.75-8.7l2.25-10.65q4.2-16.5,13.95-25.8T409,103q8.55,0,13.42,2.4a21.47,21.47,0,0,1,8,6.75l.75-3.9a4.29,4.29,0,0,1,1.65-2.7,4.57,4.57,0,0,1,2.85-1h16.8a3.18,3.18,0,0,1,2.55,1,3.23,3.23,0,0,1,.6,1.8,3.14,3.14,0,0,1-.15.9l-14.85,70.5a4.29,4.29,0,0,1-1.65,2.7,4.57,4.57,0,0,1-2.85,1.05H419.23a2.86,2.86,0,0,1-2.48-1.12,3.2,3.2,0,0,1-.52-2.63l1-4.8a42.16,42.16,0,0,1-10.58,7.5A30.63,30.63,0,0,1,393.43,184Q380.83,184,374,177.06Zm41.18-17.48a23,23,0,0,0,6-11q1.5-5.85,2.4-11.25a18.19,18.19,0,0,0,.3-3.75,11,11,0,0,0-2.55-7.65c-1.71-1.9-4.35-2.85-7.95-2.85q-12.15,0-16.8,15.75a77.73,77.73,0,0,0-2.1,9.3,31.92,31.92,0,0,0-.45,5.25q0,4.95,2.25,7.73t7.65,2.77A15.22,15.22,0,0,0,415.18,159.58Z"/><path class="cls-2" d="M458.83,181.48a3.09,3.09,0,0,1-.6-2.7l15-70.5a4.25,4.25,0,0,1,1.65-2.7,4.75,4.75,0,0,1,3-1h16.35a3.19,3.19,0,0,1,2.55,1,3.31,3.31,0,0,1,.6,1.8,3.14,3.14,0,0,1-.15.9l-1.05,5.1a40,40,0,0,1,9.9-7.65,27,27,0,0,1,12.75-2.7q8.55,0,14,3.38a17.54,17.54,0,0,1,7.58,9.52Q551.22,103,565.62,103q10.65,0,17,5.78T589,126a54.21,54.21,0,0,1-1.2,10.2l-9,42.6a4.34,4.34,0,0,1-1.65,2.7,4.59,4.59,0,0,1-2.85,1.05h-17.4a3.16,3.16,0,0,1-2.55-1.05,3.06,3.06,0,0,1-.6-2.7l8.84-41.55a26.94,26.94,0,0,0,.61-5.55q0-8.55-8.4-8.55a14,14,0,0,0-9.08,3.38q-4.12,3.37-5.63,10.72l-8.84,41.55a4.31,4.31,0,0,1-1.66,2.7,4.55,4.55,0,0,1-2.84,1.05h-17.4a3.16,3.16,0,0,1-2.55-1.05,3.06,3.06,0,0,1-.6-2.7l9-41.55a22.77,22.77,0,0,0,.6-5.1q0-9-8.55-9a13.89,13.89,0,0,0-9,3.45c-2.8,2.3-4.71,5.8-5.7,10.5l-9,41.7a4.47,4.47,0,0,1-1.58,2.7,4.28,4.28,0,0,1-2.77,1.05H461.38A3.16,3.16,0,0,1,458.83,181.48Z"/><path class="cls-3" d="M607,181.48a3.65,3.65,0,0,1-1-2.7V81.28a3.53,3.53,0,0,1,1.13-2.7,3.71,3.71,0,0,1,2.62-1h19.35a3.93,3.93,0,0,1,2.78,1,3.52,3.52,0,0,1,1.12,2.7v36.15h36.9V81.28a3.6,3.6,0,0,1,3.75-3.75H693a3.6,3.6,0,0,1,3.75,3.75v97.5a3.6,3.6,0,0,1-3.75,3.75H673.62a3.6,3.6,0,0,1-3.75-3.75V141.43H633v37.35a3.52,3.52,0,0,1-1.12,2.7,3.93,3.93,0,0,1-2.78,1.05H609.72A3.65,3.65,0,0,1,607,181.48Z"/><path class="cls-3" d="M718.85,181.41a3.61,3.61,0,0,1-1.13-2.63V81.28a3.53,3.53,0,0,1,1.13-2.7,3.71,3.71,0,0,1,2.62-1h20.1a3.93,3.93,0,0,1,2.78,1,3.52,3.52,0,0,1,1.12,2.7v97.5a3.52,3.52,0,0,1-1.12,2.7,3.93,3.93,0,0,1-2.78,1.05h-20.1A3.58,3.58,0,0,1,718.85,181.41Z"/><path class="cls-3" d="M767.45,181.41a3.61,3.61,0,0,1-1.13-2.63V81.28a3.53,3.53,0,0,1,1.13-2.7,3.71,3.71,0,0,1,2.62-1h19.8a3.6,3.6,0,0,1,3.75,3.75v78.6h45.45a3.53,3.53,0,0,1,2.7,1.13,3.9,3.9,0,0,1,1.05,2.77v15a3.74,3.74,0,0,1-1.05,2.63,3.52,3.52,0,0,1-2.7,1.12h-69A3.58,3.58,0,0,1,767.45,181.41Z"/><path class="cls-3" d="M857,181.41a3.6,3.6,0,0,1-1.12-2.63V81.28a3.52,3.52,0,0,1,1.12-2.7,3.74,3.74,0,0,1,2.63-1h19.8a3.6,3.6,0,0,1,3.75,3.75v78.6h45.45a3.53,3.53,0,0,1,2.7,1.13,3.9,3.9,0,0,1,1,2.77v15a3.74,3.74,0,0,1-1,2.63,3.52,3.52,0,0,1-2.7,1.12h-69A3.6,3.6,0,0,1,857,181.41Z"/></g></svg>